<svg xmlns="http://www.w3.org/2000/svg" xmlns:xlink="http://www.w3.org/1999/xlink" width="1710" height="1058.66"><rect width="1710" height="1058.66" rx="5" ry="5" class="a"/><svg y="0%" x="0%"><circle cx="20" cy="20" r="6" fill="#ff5f58"/><circle cx="40" cy="20" r="6" fill="#ffbd2e"/><circle cx="60" cy="20" r="6" fill="#18c132"/></svg><svg height="998.66" viewBox="0 0 167 99.866" width="1670" x="15" xmlns="http://www.w3.org/2000/svg" xmlns:xlink="http://www.w3.org/1999/xlink" y="50"><style>@keyframes r{0%{transform:translateX(0)}5.6%{transform:translateX(-167px)}5.8%{transform:translateX(-501px)}6.3%{transform:translateX(-1002px)}17.5%{transform:translateX(-1670px)}18.1%{transform:translateX(-2171px)}18.6%{transform:translateX(-2839px)}19.1%{transform:translateX(-3340px)}35%{transform:translateX(-3507px)}35.6%{transform:translateX(-3674px)}36.9%{transform:translateX(-3841px)}37.7%{transform:translateX(-4008px)}38.3%{transform:translateX(-4175px)}38.8%{transform:translateX(-4342px)}39.2%{transform:translateX(-4509px)}44.5%{transform:translateX(-4676px)}45.4%{transform:translateX(-4843px)}47.4%{transform:translateX(-5010px)}49.3%{transform:translateX(-5511px)}56.8%{transform:translateX(-5845px)}57.7%{transform:translateX(-6012px)}58.6%{transform:translateX(-6179px)}59.4%{transform:translateX(-6346px)}60.4%{transform:translateX(-6513px)}61.3%{transform:translateX(-6680px)}62.2%{transform:translateX(-6847px)}63.1%{transform:translateX(-7014px)}64%{transform:translateX(-7181px)}64.9%{transform:translateX(-7348px)}65.9%{transform:translateX(-7515px)}66.7%{transform:translateX(-7682px)}75.9%{transform:translateX(-7849px)}76.8%{transform:translateX(-8183px)}77.7%{transform:translateX(-8684px)}78%{transform:translateX(-9352px)}81.2%{transform:translateX(-9686px)}81.7%{transform:translateX(-10187px)}to{transform:translateX(-10354px)}}.a{fill:#282d35}.f{fill:#b9c0cb;white-space:pre}.g{fill:#a8cc8c;font-weight:700}.g,.h,.i{white-space:pre}.h{fill:#66c2cd;font-weight:700}.i{fill:#71bef2}.i,.j,.k{font-weight:700}.j{fill:#e88388;white-space:pre}.k{fill:#dbab79}.k,.l,.m,.n,.o{white-space:pre}.l{fill:#b9c0cb;text-decoration:underline}.m,.n,.o{fill:#6f7783}.n,.o{fill:#a8cc8c}.o{fill:#b9c0cb;font-weight:700}</style><g font-family="Monaco,Consolas,Menlo,'Bitstream Vera Sans Mono','Powerline Symbols',monospace" font-size="1.67"><defs><symbol id="20"><text x="1.002" y="1.67" class="f">|</text><text x="3.006" y="1.67" class="f">__</text><text x="6.012" y="1.67" class="f">\|</text><text x="10.02" y="1.67" class="f">|</text><text x="13.026" y="1.67" class="f">/</text><text x="16.032" y="1.67" class="f">_</text><text x="18.036" y="1.67" class="f">\_/</text><text x="22.044" y="1.67" class="f">___\|</text><text x="29.058" y="1.67" class="f">|/</text><text x="32.064" y="1.67" class="f">//</text><text x="35.07" y="1.67" class="f">___\|</text><text x="42.084" y="1.67" class="f">|</text><text x="45.09" y="1.67" class="f">\\__</text><text x="51.102" y="1.67" class="f">\</text><text x="53.106" y="1.67" class="f">|</text><text x="56.112" y="1.67" class="f">|/</text><text x="62.124" y="1.67" class="f">\</text></symbol><symbol id="1"><text y="1.67" class="f">pyenv:</text><text x="7.014" y="1.67" class="f">no</text><text x="10.02" y="1.67" class="f">such</text><text x="15.03" y="1.67" class="f">command</text><text x="23.046" y="1.67" class="f">`virtualenv-init&apos;</text></symbol><symbol id="3"><text y="1.67" class="g">➜</text><text x="3.006" y="1.67" class="h">Java-Blockchain</text><text x="19.038" y="1.67" class="i">git:(</text><text x="24.048" y="1.67" class="j">master</text><text x="30.06" y="1.67" class="i">)</text><text x="32.064" y="1.67" class="k">✗</text><text x="34.068" y="1.67" class="l">./gra</text><text x="39.078" y="1.67" class="m">dlew</text><text x="44.088" y="1.67" class="m">run</text></symbol><symbol id="4"><text y="1.67" class="g">➜</text><text x="3.006" y="1.67" class="h">Java-Blockchain</text><text x="19.038" y="1.67" class="i">git:(</text><text x="24.048" y="1.67" class="j">master</text><text x="30.06" y="1.67" class="i">)</text><text x="32.064" y="1.67" class="k">✗</text><text x="34.068" y="1.67" class="j">./graa</text></symbol><symbol id="5"><text y="1.67" class="g">➜</text><text x="3.006" y="1.67" class="h">Java-Blockchain</text><text x="19.038" y="1.67" class="i">git:(</text><text x="24.048" y="1.67" class="j">master</text><text x="30.06" y="1.67" class="i">)</text><text x="32.064" y="1.67" class="k">✗</text><text x="34.068" y="1.67" class="n">./gradlew</text><text x="44.088" y="1.67" class="f">run</text></symbol><symbol id="6"><text y="1.67" class="o">&gt;</text><text x="2.004" y="1.67" class="o">:run</text></symbol><symbol id="7"><text y="1.67" class="o">&lt;</text><text x="1.002" y="1.67" class="g">=========</text><text x="10.02" y="1.67" class="o">----&gt;</text><text x="16.032" y="1.67" class="o">75%</text><text x="20.04" y="1.67" class="o">EXECUTING</text><text x="30.06" y="1.67" class="o">[2s]</text></symbol><symbol id="8"><text y="1.67" class="o">&gt;</text><text x="2.004" y="1.67" class="o">Task</text><text x="7.014" y="1.67" class="o">:run</text></symbol><symbol id="9"><text y="1.67" class="f">Mining</text><text x="7.014" y="1.67" class="f">Block...</text></symbol><symbol id="10"><text y="1.67" class="f">Mining</text><text x="7.014" y="1.67" class="f">Success:</text><text x="16.032" y="1.67" class="f">PT0.422168S</text></symbol><symbol id="11"><text y="1.67" class="f">Alice</text><text x="6.012" y="1.67" class="f">Balance:</text><text x="15.03" y="1.67" class="f">100.0</text></symbol><symbol id="12"><text y="1.67" class="f">Insufficient</text><text x="13.026" y="1.67" class="f">funds</text></symbol><symbol id="13"><text y="1.67" class="f">Transaction</text><text x="12.024" y="1.67" class="f">Processed?</text><text x="23.046" y="1.67" class="f">false</text></symbol><symbol id="14"><text y="1.67" class="f">Transaction</text><text x="12.024" y="1.67" class="f">Processed?</text><text x="23.046" y="1.67" class="f">true</text></symbol><symbol id="15"><text y="1.67" class="f">Mining</text><text x="7.014" y="1.67" class="f">Success:</text><text x="16.032" y="1.67" class="f">PT0.624532S</text></symbol><symbol id="16"><text y="1.67" class="f">Alice&apos;s</text><text x="8.016" y="1.67" class="f">Final</text><text x="14.028" y="1.67" class="f">Balance:</text><text x="23.046" y="1.67" class="f">50.0</text></symbol><symbol id="17"><text y="1.67" class="f">Bob&apos;s</text><text x="6.012" y="1.67" class="f">Final</text><text x="12.024" y="1.67" class="f">Balance:</text><text x="21.042" y="1.67" class="f">50.0</text></symbol><symbol id="18"><text y="1.67" class="f">___.</text><text x="7.014" y="1.67" class="f">.__</text><text x="27.054" y="1.67" class="f">__</text><text x="39.078" y="1.67" class="f">.__</text><text x="53.106" y="1.67" class="f">.__</text></symbol><symbol id="19"><text y="1.67" class="f">\_</text><text x="3.006" y="1.67" class="f">|__</text><text x="7.014" y="1.67" class="f">|</text><text x="10.02" y="1.67" class="f">|</text><text x="14.028" y="1.67" class="f">____</text><text x="21.042" y="1.67" class="f">____</text><text x="26.052" y="1.67" class="f">|</text><text x="29.058" y="1.67" class="f">|</text><text x="31.062" y="1.67" class="f">__</text><text x="34.068" y="1.67" class="f">____</text><text x="39.078" y="1.67" class="f">|</text><text x="42.084" y="1.67" class="f">|__</text><text x="46.092" y="1.67" class="f">_____</text><text x="53.106" y="1.67" class="f">|__|</text><text x="58.116" y="1.67" class="f">____</text></symbol><symbol id="2"><text y="1.67" class="g">➜</text><text x="3.006" y="1.67" class="h">Java-Blockchain</text><text x="19.038" y="1.67" class="i">git:(</text><text x="24.048" y="1.67" class="j">master</text><text x="30.06" y="1.67" class="i">)</text><text x="32.064" y="1.67" class="k">✗</text></symbol><symbol id="21"><text x="1.002" y="1.67" class="f">|</text><text x="3.006" y="1.67" class="f">\_\</text><text x="7.014" y="1.67" class="f">\</text><text x="10.02" y="1.67" class="f">|_(</text><text x="15.03" y="1.67" class="f">&lt;_&gt;</text><text x="19.038" y="1.67" class="f">)</text><text x="22.044" y="1.67" class="f">\___|</text><text x="31.062" y="1.67" class="f">&lt;\</text><text x="35.07" y="1.67" class="f">\___|</text><text x="43.086" y="1.67" class="f">Y</text><text x="46.092" y="1.67" class="f">\/</text><text x="49.098" y="1.67" class="f">__</text><text x="52.104" y="1.67" class="f">\|</text><text x="56.112" y="1.67" class="f">|</text><text x="60.12" y="1.67" class="f">|</text><text x="63.126" y="1.67" class="f">\</text></symbol><symbol id="22"><text x="1.002" y="1.67" class="f">|___</text><text x="7.014" y="1.67" class="f">/____/\____/</text><text x="20.04" y="1.67" class="f">\___</text><text x="26.052" y="1.67" class="f">&gt;__|_</text><text x="32.064" y="1.67" class="f">\\___</text><text x="39.078" y="1.67" class="f">&gt;___|</text><text x="46.092" y="1.67" class="f">(____</text><text x="53.106" y="1.67" class="f">/__|___|</text><text x="63.126" y="1.67" class="f">/</text></symbol><symbol id="23"><text x="5.01" y="1.67" class="f">\/</text><text x="24.048" y="1.67" class="f">\/</text><text x="31.062" y="1.67" class="f">\/</text><text x="37.074" y="1.67" class="f">\/</text><text x="44.088" y="1.67" class="f">\/</text><text x="51.102" y="1.67" class="f">\/</text><text x="61.122" y="1.67" class="f">\/</text></symbol><symbol id="24"><text y="1.67" class="f">///////////////////////////////////////////////</text><text x="53.106" y="1.67" class="f">///////////////////////////////////////////////</text></symbol><symbol id="25"><text y="1.67" class="f">//</text><text x="23.046" y="1.67" class="f">0</text><text x="45.09" y="1.67" class="f">//</text><text x="53.106" y="1.67" class="f">//</text><text x="76.152" y="1.67" class="f">1</text><text x="98.196" y="1.67" class="f">//</text></symbol><symbol id="26"><text y="1.67" class="f">//</text><text x="3.006" y="1.67" class="f">Timestamp:</text><text x="16.032" y="1.67" class="f">2020-12-18T13:12:11.193956</text><text x="45.09" y="1.67" class="f">//</text><text x="53.106" y="1.67" class="f">//</text><text x="56.112" y="1.67" class="f">Timestamp:</text><text x="69.138" y="1.67" class="f">2020-12-18T13:12:11.858296</text><text x="98.196" y="1.67" class="f">//</text></symbol><symbol id="27"><text y="1.67" class="f">//</text><text x="3.006" y="1.67" class="f">Previous:</text><text x="28.056" y="1.67" class="f">0</text><text x="45.09" y="1.67" class="f">//</text><text x="53.106" y="1.67" class="f">//</text><text x="56.112" y="1.67" class="f">Previous:</text><text x="74.148" y="1.67" class="f">003BBAE0F3B55E</text><text x="98.196" y="1.67" class="f">//</text></symbol><symbol id="28"><text y="1.67" class="f">//</text><text x="3.006" y="1.67" class="f">Signature:</text><text x="22.044" y="1.67" class="f">003BBAE0F3B55E</text><text x="45.09" y="1.67" class="f">//</text><text x="49.098" y="1.67" class="f">→</text><text x="52.104" y="1.67" class="f">//</text><text x="55.11" y="1.67" class="f">Signature:</text><text x="74.148" y="1.67" class="f">0035C4C985B164</text><text x="97.194" y="1.67" class="f">//</text><text x="101.202" y="1.67" class="f">→</text><text x="105.21" y="1.67" class="f">[next]</text></symbol><symbol id="29"><text y="1.67" class="f">//</text><text x="3.006" y="1.67" class="f">Transactions:</text><text x="28.056" y="1.67" class="f">&lt;</text><text x="31.062" y="1.67" class="f">&gt;</text><text x="45.09" y="1.67" class="f">//</text><text x="52.104" y="1.67" class="f">//</text><text x="55.11" y="1.67" class="f">Transactions:</text><text x="77.154" y="1.67" class="f">&lt;</text><text x="79.158" y="1.67" class="f">[1A2D3]</text><text x="87.174" y="1.67" class="f">&gt;</text><text x="97.194" y="1.67" class="f">//</text></symbol><symbol id="30"><text y="1.67" class="f">//</text><text x="3.006" y="1.67" class="f">Merkle</text><text x="10.02" y="1.67" class="f">Root:</text><text x="29.058" y="1.67" class="f">0</text><text x="45.09" y="1.67" class="f">//</text><text x="52.104" y="1.67" class="f">//</text><text x="55.11" y="1.67" class="f">Merkle</text><text x="62.124" y="1.67" class="f">Root:</text><text x="75.15" y="1.67" class="f">1A2D3FE37A7E4C</text><text x="97.194" y="1.67" class="f">//</text></symbol><symbol id="31"><text y="1.67" class="f">///////////////////////////////////////////////</text><text x="52.104" y="1.67" class="f">///////////////////////////////////////////////</text></symbol><symbol id="32"><text y="1.67" class="f">Deprecated</text><text x="11.022" y="1.67" class="f">Gradle</text><text x="18.036" y="1.67" class="f">features</text><text x="27.054" y="1.67" class="f">were</text><text x="32.064" y="1.67" class="f">used</text><text x="37.074" y="1.67" class="f">in</text><text x="40.08" y="1.67" class="f">this</text><text x="45.09" y="1.67" class="f">build,</text><text x="52.104" y="1.67" class="f">making</text><text x="59.118" y="1.67" class="f">it</text><text x="62.124" y="1.67" class="f">incompatible</text><text x="75.15" y="1.67" class="f">with</text><text x="80.16" y="1.67" class="f">Gradle</text><text x="87.174" y="1.67" class="f">7.0.</text></symbol><symbol id="33"><text y="1.67" class="f">Use</text><text x="4.008" y="1.67" class="f">&apos;--warning-mode</text><text x="20.04" y="1.67" class="f">all&apos;</text><text x="25.05" y="1.67" class="f">to</text><text x="28.056" y="1.67" class="f">show</text><text x="33.066" y="1.67" class="f">the</text><text x="37.074" y="1.67" class="f">individual</text><text x="48.096" y="1.67" class="f">deprecation</text><text x="60.12" y="1.67" class="f">warnings.</text></symbol><symbol id="34"><text y="1.67" class="f">See</text><text x="4.008" y="1.67" class="f">https://docs.gradle.org/6.6.1/userguide/command_line_interface.html#sec:command_line_warnings</text></symbol><symbol id="35"><text y="1.67" class="g">BUILD</text><text x="6.012" y="1.67" class="g">SUCCESSFUL</text><text x="17.034" y="1.67" class="f">in</text><text x="20.04" y="1.67" class="f">2s</text></symbol><symbol id="36"><text y="1.67" class="f">2</text><text x="2.004" y="1.67" class="f">actionable</text><text x="13.026" y="1.67" class="f">tasks:</text><text x="20.04" y="1.67" class="f">1</text><text x="22.044" y="1.67" class="f">executed,</text><text x="32.064" y="1.67" class="f">1</text><text x="34.068" y="1.67" class="f">up-to-date</text></symbol><symbol id="a"><path fill="transparent" d="M0 0h167v46H0z"/></symbol><symbol id="b"><path fill="#6f7683" d="M0 0h1.102v2.171H0z"/></symbol></defs><path class="a" d="M0 0h167v99.866H0z"/><g style="animation-duration:10.958215s;animation-iteration-count:infinite;animation-name:r;animation-timing-function:steps(1,end)"><svg width="10521"><svg><use xlink:href="#a"/><use xlink:href="#b" x="-.004"/></svg><svg x="167"><use xlink:href="#a"/><use xlink:href="#b" x="-.004" y="2.146"/><use xlink:href="#1"/></svg><svg x="334"><use xlink:href="#a"/><use xlink:href="#b" x="-.004" y="2.146"/><use xlink:href="#1"/></svg><svg x="501"><use xlink:href="#a"/><use xlink:href="#b" x="-.004" y="2.146"/><use xlink:href="#1"/></svg><svg x="668"><use xlink:href="#a"/><use xlink:href="#b" x="33.996" y="2.146"/><use xlink:href="#1"/><use xlink:href="#2" y="2.171"/></svg><svg x="835"><use xlink:href="#a"/><use xlink:href="#b" x="33.996" y="2.146"/><use xlink:href="#1"/><use xlink:href="#2" y="2.171"/></svg><svg x="1002"><use xlink:href="#a"/><use xlink:href="#b" x="33.996" y="2.146"/><use xlink:href="#1"/><use xlink:href="#2" y="2.171"/></svg><svg x="1169"><use xlink:href="#a"/><use xlink:href="#b" x="33.996" y="2.146"/><use xlink:href="#1"/><use xlink:href="#2" y="2.171"/></svg><svg x="1336"><use xlink:href="#a"/><use xlink:href="#b" x="-.004" y="4.317"/><use xlink:href="#1"/><use xlink:href="#2" y="2.171"/></svg><svg x="1503"><use xlink:href="#a"/><use xlink:href="#b" x="-.004" y="4.317"/><use xlink:href="#1"/><use xlink:href="#2" y="2.171"/></svg><svg x="1670"><use xlink:href="#a"/><use xlink:href="#b" x="-.004" y="4.317"/><use xlink:href="#1"/><use xlink:href="#2" y="2.171"/></svg><svg x="1837"><use xlink:href="#a"/><use xlink:href="#b" x="33.996" y="4.317"/><use xlink:href="#1"/><use xlink:href="#2" y="2.171"/><use xlink:href="#2" y="4.342"/></svg><svg x="2004"><use xlink:href="#a"/><use xlink:href="#b" x="33.996" y="4.317"/><use xlink:href="#1"/><use xlink:href="#2" y="2.171"/><use xlink:href="#2" y="4.342"/></svg><svg x="2171"><use xlink:href="#a"/><use xlink:href="#b" x="33.996" y="4.317"/><use xlink:href="#1"/><use xlink:href="#2" y="2.171"/><use xlink:href="#2" y="4.342"/></svg><svg x="2338"><use xlink:href="#a"/><use xlink:href="#b" x="33.996" y="4.317"/><use xlink:href="#1"/><use xlink:href="#2" y="2.171"/><use xlink:href="#2" y="4.342"/></svg><svg x="2505"><use xlink:href="#a"/><use xlink:href="#b" x="-.004" y="6.488"/><use xlink:href="#1"/><use xlink:href="#2" y="2.171"/><use xlink:href="#2" y="4.342"/></svg><svg x="2672"><use xlink:href="#a"/><use xlink:href="#b" x="-.004" y="6.488"/><use xlink:href="#1"/><use xlink:href="#2" y="2.171"/><use xlink:href="#2" y="4.342"/></svg><svg x="2839"><use xlink:href="#a"/><use xlink:href="#b" x="-.004" y="6.488"/><use xlink:href="#1"/><use xlink:href="#2" y="2.171"/><use xlink:href="#2" y="4.342"/></svg><svg x="3006"><use xlink:href="#a"/><use xlink:href="#b" x="33.996" y="6.488"/><use xlink:href="#1"/><use xlink:href="#2" y="2.171"/><use xlink:href="#2" y="4.342"/><use xlink:href="#2" y="6.513"/></svg><svg x="3173"><use xlink:href="#a"/><use xlink:href="#b" x="33.996" y="6.488"/><use xlink:href="#1"/><use xlink:href="#2" y="2.171"/><use xlink:href="#2" y="4.342"/><use xlink:href="#2" y="6.513"/></svg><svg x="3340"><use xlink:href="#a"/><use xlink:href="#b" x="33.996" y="6.488"/><use xlink:href="#1"/><use xlink:href="#2" y="2.171"/><use xlink:href="#2" y="4.342"/><use xlink:href="#2" y="6.513"/></svg><svg x="3507"><use xlink:href="#a"/><use xlink:href="#b" x="34.996" y="6.488"/><use xlink:href="#1"/><use xlink:href="#2" y="2.171"/><use xlink:href="#2" y="4.342"/><text y="8.183" class="g">➜</text><text x="3.006" y="8.183" class="h">Java-Blockchain</text><text x="19.038" y="8.183" class="i">git:(</text><text x="24.048" y="8.183" class="j">master</text><text x="30.06" y="8.183" class="i">)</text><text x="32.064" y="8.183" class="k">✗</text><text x="34.068" y="8.183" class="n">.</text><text x="35.07" y="8.183" class="m">/gradlew</text><text x="44.088" y="8.183" class="m">run</text></svg><svg x="3674"><use xlink:href="#a"/><use xlink:href="#b" x="35.996" y="6.488"/><use xlink:href="#1"/><use xlink:href="#2" y="2.171"/><use xlink:href="#2" y="4.342"/><text y="8.183" class="g">➜</text><text x="3.006" y="8.183" class="h">Java-Blockchain</text><text x="19.038" y="8.183" class="i">git:(</text><text x="24.048" y="8.183" class="j">master</text><text x="30.06" y="8.183" class="i">)</text><text x="32.064" y="8.183" class="k">✗</text><text x="34.068" y="8.183" class="l">./</text><text x="36.072" y="8.183" class="m">gradlew</text><text x="44.088" y="8.183" class="m">run</text></svg><svg x="3841"><use xlink:href="#a"/><use xlink:href="#b" x="36.996" y="6.488"/><use xlink:href="#1"/><use xlink:href="#2" y="2.171"/><use xlink:href="#2" y="4.342"/><text y="8.183" class="g">➜</text><text x="3.006" y="8.183" class="h">Java-Blockchain</text><text x="19.038" y="8.183" class="i">git:(</text><text x="24.048" y="8.183" class="j">master</text><text x="30.06" y="8.183" class="i">)</text><text x="32.064" y="8.183" class="k">✗</text><text x="34.068" y="8.183" class="l">./g</text><text x="37.074" y="8.183" class="m">radlew</text><text x="44.088" y="8.183" class="m">run</text></svg><svg x="4008"><use xlink:href="#a"/><use xlink:href="#b" x="37.996" y="6.488"/><use xlink:href="#1"/><use xlink:href="#2" y="2.171"/><use xlink:href="#2" y="4.342"/><text y="8.183" class="g">➜</text><text x="3.006" y="8.183" class="h">Java-Blockchain</text><text x="19.038" y="8.183" class="i">git:(</text><text x="24.048" y="8.183" class="j">master</text><text x="30.06" y="8.183" class="i">)</text><text x="32.064" y="8.183" class="k">✗</text><text x="34.068" y="8.183" class="l">./gr</text><text x="38.076" y="8.183" class="m">adlew</text><text x="44.088" y="8.183" class="m">run</text></svg><svg x="4175"><use xlink:href="#a"/><use xlink:href="#b" x="38.996" y="6.488"/><use xlink:href="#1"/><use xlink:href="#2" y="2.171"/><use xlink:href="#2" y="4.342"/><use xlink:href="#3" y="6.513"/></svg><svg x="4342"><use xlink:href="#a"/><use xlink:href="#b" x="39.996" y="6.488"/><use xlink:href="#1"/><use xlink:href="#2" y="2.171"/><use xlink:href="#2" y="4.342"/><use xlink:href="#4" y="6.513"/></svg><svg x="4509"><use xlink:href="#a"/><use xlink:href="#b" x="40.996" y="6.488"/><use xlink:href="#1"/><use xlink:href="#2" y="2.171"/><use xlink:href="#2" y="4.342"/><text y="8.183" class="g">➜</text><text x="3.006" y="8.183" class="h">Java-Blockchain</text><text x="19.038" y="8.183" class="i">git:(</text><text x="24.048" y="8.183" class="j">master</text><text x="30.06" y="8.183" class="i">)</text><text x="32.064" y="8.183" class="k">✗</text><text x="34.068" y="8.183" class="j">./graad</text></svg><svg x="4676"><use xlink:href="#a"/><use xlink:href="#b" x="39.996" y="6.488"/><use xlink:href="#1"/><use xlink:href="#2" y="2.171"/><use xlink:href="#2" y="4.342"/><use xlink:href="#4" y="6.513"/></svg><svg x="4843"><use xlink:href="#a"/><use xlink:href="#b" x="38.996" y="6.488"/><use xlink:href="#1"/><use xlink:href="#2" y="2.171"/><use xlink:href="#2" y="4.342"/><use xlink:href="#3" y="6.513"/></svg><svg x="5010"><use xlink:href="#a"/><use xlink:href="#b" x="47.996" y="6.488"/><use xlink:href="#1"/><use xlink:href="#2" y="2.171"/><use xlink:href="#2" y="4.342"/><use xlink:href="#5" y="6.513"/></svg><svg x="5177"><use xlink:href="#a"/><use xlink:href="#b" x="47.996" y="6.488"/><use xlink:href="#1"/><use xlink:href="#2" y="2.171"/><use xlink:href="#2" y="4.342"/><use xlink:href="#5" y="6.513"/></svg><svg x="5344"><use xlink:href="#a"/><use xlink:href="#b" x="-.004" y="8.659"/><use xlink:href="#1"/><use xlink:href="#2" y="2.171"/><use xlink:href="#2" y="4.342"/><use xlink:href="#5" y="6.513"/></svg><svg x="5511"><use xlink:href="#a"/><use xlink:href="#b" x="-.004" y="8.659"/><use xlink:href="#1"/><use xlink:href="#2" y="2.171"/><use xlink:href="#2" y="4.342"/><use xlink:href="#5" y="6.513"/></svg><svg x="5678"><use xlink:href="#a"/><use xlink:href="#b" x="-.004" y="13.001"/><use xlink:href="#1"/><use xlink:href="#2" y="2.171"/><use xlink:href="#2" y="4.342"/><use xlink:href="#5" y="6.513"/></svg><svg x="5845"><use xlink:href="#a"/><use xlink:href="#b" x="-.004" y="13.001"/><use xlink:href="#1"/><use xlink:href="#2" y="2.171"/><use xlink:href="#2" y="4.342"/><use xlink:href="#5" y="6.513"/><text y="12.525" class="o">&gt;</text><text x="2.004" y="12.525" class="o">Connecting</text><text x="13.026" y="12.525" class="o">to</text><text x="16.032" y="12.525" class="o">Daemon</text></svg><svg x="6012"><use xlink:href="#a"/><use xlink:href="#b" x="-.004" y="13.001"/><use xlink:href="#1"/><use xlink:href="#2" y="2.171"/><use xlink:href="#2" y="4.342"/><use xlink:href="#5" y="6.513"/><text y="10.354" class="o">&lt;-------------&gt;</text><text x="16.032" y="10.354" class="o">0%</text><text x="19.038" y="10.354" class="o">EXECUTING</text><text x="29.058" y="10.354" class="o">[58ms]</text><text y="12.525" class="o">&gt;</text><text x="2.004" y="12.525" class="o">:compileJava</text></svg><svg x="6179"><use xlink:href="#a"/><use xlink:href="#b" x="-.004" y="13.001"/><use xlink:href="#1"/><use xlink:href="#2" y="2.171"/><use xlink:href="#2" y="4.342"/><use xlink:href="#5" y="6.513"/><text y="10.354" class="o">&lt;</text><text x="1.002" y="10.354" class="g">=========</text><text x="10.02" y="10.354" class="o">----&gt;</text><text x="16.032" y="10.354" class="o">75%</text><text x="20.04" y="10.354" class="o">EXECUTING</text><text x="30.06" y="10.354" class="o">[158ms]</text><use xlink:href="#6" y="10.855"/></svg><svg x="6346"><use xlink:href="#a"/><use xlink:href="#b" x="-.004" y="13.001"/><use xlink:href="#1"/><use xlink:href="#2" y="2.171"/><use xlink:href="#2" y="4.342"/><use xlink:href="#5" y="6.513"/><text y="10.354" class="o">&lt;</text><text x="1.002" y="10.354" class="g">=========</text><text x="10.02" y="10.354" class="o">----&gt;</text><text x="16.032" y="10.354" class="o">75%</text><text x="20.04" y="10.354" class="o">EXECUTING</text><text x="30.06" y="10.354" class="o">[258ms]</text><use xlink:href="#6" y="10.855"/></svg><svg x="6513"><use xlink:href="#a"/><use xlink:href="#b" x="-.004" y="13.001"/><use xlink:href="#1"/><use xlink:href="#2" y="2.171"/><use xlink:href="#2" y="4.342"/><use xlink:href="#5" y="6.513"/><text y="10.354" class="o">&lt;</text><text x="1.002" y="10.354" class="g">=========</text><text x="10.02" y="10.354" class="o">----&gt;</text><text x="16.032" y="10.354" class="o">75%</text><text x="20.04" y="10.354" class="o">EXECUTING</text><text x="30.06" y="10.354" class="o">[362ms]</text><use xlink:href="#6" y="10.855"/></svg><svg x="6680"><use xlink:href="#a"/><use xlink:href="#b" x="-.004" y="13.001"/><use xlink:href="#1"/><use xlink:href="#2" y="2.171"/><use xlink:href="#2" y="4.342"/><use xlink:href="#5" y="6.513"/><text y="10.354" class="o">&lt;</text><text x="1.002" y="10.354" class="g">=========</text><text x="10.02" y="10.354" class="o">----&gt;</text><text x="16.032" y="10.354" class="o">75%</text><text x="20.04" y="10.354" class="o">EXECUTING</text><text x="30.06" y="10.354" class="o">[461ms]</text><use xlink:href="#6" y="10.855"/></svg><svg x="6847"><use xlink:href="#a"/><use xlink:href="#b" x="-.004" y="13.001"/><use xlink:href="#1"/><use xlink:href="#2" y="2.171"/><use xlink:href="#2" y="4.342"/><use xlink:href="#5" y="6.513"/><text y="10.354" class="o">&lt;</text><text x="1.002" y="10.354" class="g">=========</text><text x="10.02" y="10.354" class="o">----&gt;</text><text x="16.032" y="10.354" class="o">75%</text><text x="20.04" y="10.354" class="o">EXECUTING</text><text x="30.06" y="10.354" class="o">[558ms]</text><use xlink:href="#6" y="10.855"/></svg><svg x="7014"><use xlink:href="#a"/><use xlink:href="#b" x="-.004" y="13.001"/><use xlink:href="#1"/><use xlink:href="#2" y="2.171"/><use xlink:href="#2" y="4.342"/><use xlink:href="#5" y="6.513"/><text y="10.354" class="o">&lt;</text><text x="1.002" y="10.354" class="g">=========</text><text x="10.02" y="10.354" class="o">----&gt;</text><text x="16.032" y="10.354" class="o">75%</text><text x="20.04" y="10.354" class="o">EXECUTING</text><text x="30.06" y="10.354" class="o">[658ms]</text><use xlink:href="#6" y="10.855"/></svg><svg x="7181"><use xlink:href="#a"/><use xlink:href="#b" x="-.004" y="13.001"/><use xlink:href="#1"/><use xlink:href="#2" y="2.171"/><use xlink:href="#2" y="4.342"/><use xlink:href="#5" y="6.513"/><text y="10.354" class="o">&lt;</text><text x="1.002" y="10.354" class="g">=========</text><text x="10.02" y="10.354" class="o">----&gt;</text><text x="16.032" y="10.354" class="o">75%</text><text x="20.04" y="10.354" class="o">EXECUTING</text><text x="30.06" y="10.354" class="o">[760ms]</text><use xlink:href="#6" y="10.855"/></svg><svg x="7348"><use xlink:href="#a"/><use xlink:href="#b" x="-.004" y="13.001"/><use xlink:href="#1"/><use xlink:href="#2" y="2.171"/><use xlink:href="#2" y="4.342"/><use xlink:href="#5" y="6.513"/><text y="10.354" class="o">&lt;</text><text x="1.002" y="10.354" class="g">=========</text><text x="10.02" y="10.354" class="o">----&gt;</text><text x="16.032" y="10.354" class="o">75%</text><text x="20.04" y="10.354" class="o">EXECUTING</text><text x="30.06" y="10.354" class="o">[858ms]</text><use xlink:href="#6" y="10.855"/></svg><svg x="7515"><use xlink:href="#a"/><use xlink:href="#b" x="-.004" y="13.001"/><use xlink:href="#1"/><use xlink:href="#2" y="2.171"/><use xlink:href="#2" y="4.342"/><use xlink:href="#5" y="6.513"/><text y="10.354" class="o">&lt;</text><text x="1.002" y="10.354" class="g">=========</text><text x="10.02" y="10.354" class="o">----&gt;</text><text x="16.032" y="10.354" class="o">75%</text><text x="20.04" y="10.354" class="o">EXECUTING</text><text x="30.06" y="10.354" class="o">[960ms]</text><use xlink:href="#6" y="10.855"/></svg><svg x="7682"><use xlink:href="#a"/><use xlink:href="#b" x="-.004" y="13.001"/><use xlink:href="#1"/><use xlink:href="#2" y="2.171"/><use xlink:href="#2" y="4.342"/><use xlink:href="#5" y="6.513"/><text y="10.354" class="o">&lt;</text><text x="1.002" y="10.354" class="g">=========</text><text x="10.02" y="10.354" class="o">----&gt;</text><text x="16.032" y="10.354" class="o">75%</text><text x="20.04" y="10.354" class="o">EXECUTING</text><text x="30.06" y="10.354" class="o">[1s]</text><use xlink:href="#6" y="10.855"/></svg><svg x="7849"><use xlink:href="#a"/><use xlink:href="#b" x="-.004" y="13.001"/><use xlink:href="#1"/><use xlink:href="#2" y="2.171"/><use xlink:href="#2" y="4.342"/><use xlink:href="#5" y="6.513"/><use xlink:href="#7" y="8.684"/><use xlink:href="#6" y="10.855"/></svg><svg x="8016"><use xlink:href="#a"/><use xlink:href="#b" x="-.004" y="32.54"/><use xlink:href="#1"/><use xlink:href="#2" y="2.171"/><use xlink:href="#2" y="4.342"/><use xlink:href="#5" y="6.513"/><use xlink:href="#8" y="10.855"/><use xlink:href="#9" y="13.026"/><use xlink:href="#10" y="15.197"/><use xlink:href="#11" y="17.368"/><use xlink:href="#12" y="19.539"/><use xlink:href="#11" y="21.71"/><use xlink:href="#11" y="23.881"/><use xlink:href="#13" y="26.052"/><use xlink:href="#14" y="28.223"/><use xlink:href="#9" y="30.394"/></svg><svg x="8183"><use xlink:href="#a"/><use xlink:href="#b" x="-.004" y="36.882"/><use xlink:href="#1"/><use xlink:href="#2" y="2.171"/><use xlink:href="#2" y="4.342"/><use xlink:href="#5" y="6.513"/><use xlink:href="#8" y="10.855"/><use xlink:href="#9" y="13.026"/><use xlink:href="#10" y="15.197"/><use xlink:href="#11" y="17.368"/><use xlink:href="#12" y="19.539"/><use xlink:href="#11" y="21.71"/><use xlink:href="#11" y="23.881"/><use xlink:href="#13" y="26.052"/><use xlink:href="#14" y="28.223"/><use xlink:href="#9" y="30.394"/><use xlink:href="#7" y="32.565"/><use xlink:href="#6" y="34.736"/></svg><svg x="8350"><use xlink:href="#a"/><use xlink:href="#b" x="-.004" y="45.566"/><use xlink:href="#1"/><use xlink:href="#2" y="2.171"/><use xlink:href="#2" y="4.342"/><use xlink:href="#5" y="6.513"/><use xlink:href="#8" y="10.855"/><use xlink:href="#9" y="13.026"/><use xlink:href="#10" y="15.197"/><use xlink:href="#11" y="17.368"/><use xlink:href="#12" y="19.539"/><use xlink:href="#11" y="21.71"/><use xlink:href="#11" y="23.881"/><use xlink:href="#13" y="26.052"/><use xlink:href="#14" y="28.223"/><use xlink:href="#9" y="30.394"/><use xlink:href="#15" y="32.565"/><use xlink:href="#16" y="34.736"/><use xlink:href="#17" y="36.907"/><use xlink:href="#18" y="39.078"/><use xlink:href="#19" y="41.249"/><use xlink:href="#20" y="43.42"/></svg><svg x="8517"><use xlink:href="#a"/><use xlink:href="#b" x="67.996" y="69.447"/><use xlink:href="#1"/><use xlink:href="#2" y="2.171"/><use xlink:href="#2" y="4.342"/><use xlink:href="#5" y="6.513"/><use xlink:href="#8" y="10.855"/><use xlink:href="#9" y="13.026"/><use xlink:href="#10" y="15.197"/><use xlink:href="#11" y="17.368"/><use xlink:href="#12" y="19.539"/><use xlink:href="#11" y="21.71"/><use xlink:href="#11" y="23.881"/><use xlink:href="#13" y="26.052"/><use xlink:href="#14" y="28.223"/><use xlink:href="#9" y="30.394"/><use xlink:href="#15" y="32.565"/><use xlink:href="#16" y="34.736"/><use xlink:href="#17" y="36.907"/><use xlink:href="#18" y="39.078"/><use xlink:href="#19" y="41.249"/><use xlink:href="#20" y="43.42"/><use xlink:href="#21" y="45.591"/><use xlink:href="#22" y="47.762"/><use xlink:href="#23" y="49.933"/><use xlink:href="#24" y="54.275"/><use xlink:href="#25" y="56.446"/><use xlink:href="#26" y="58.617"/><use xlink:href="#27" y="60.788"/><use xlink:href="#28" y="62.959"/><use xlink:href="#29" y="65.13"/><use xlink:href="#30" y="67.301"/><text y="71.142" class="f">///////////////////////////////////////////////</text><text x="52.104" y="71.142" class="f">////////////////</text></svg><svg x="8684"><use xlink:href="#a"/><use xlink:href="#b" x="-.004" y="75.96"/><use xlink:href="#1"/><use xlink:href="#2" y="2.171"/><use xlink:href="#2" y="4.342"/><use xlink:href="#5" y="6.513"/><use xlink:href="#8" y="10.855"/><use xlink:href="#9" y="13.026"/><use xlink:href="#10" y="15.197"/><use xlink:href="#11" y="17.368"/><use xlink:href="#12" y="19.539"/><use xlink:href="#11" y="21.71"/><use xlink:href="#11" y="23.881"/><use xlink:href="#13" y="26.052"/><use xlink:href="#14" y="28.223"/><use xlink:href="#9" y="30.394"/><use xlink:href="#15" y="32.565"/><use xlink:href="#16" y="34.736"/><use xlink:href="#17" y="36.907"/><use xlink:href="#18" y="39.078"/><use xlink:href="#19" y="41.249"/><use xlink:href="#20" y="43.42"/><use xlink:href="#21" y="45.591"/><use xlink:href="#22" y="47.762"/><use xlink:href="#23" y="49.933"/><use xlink:href="#24" y="54.275"/><use xlink:href="#25" y="56.446"/><use xlink:href="#26" y="58.617"/><use xlink:href="#27" y="60.788"/><use xlink:href="#28" y="62.959"/><use xlink:href="#29" y="65.13"/><use xlink:href="#30" y="67.301"/><use xlink:href="#31" y="69.472"/><use xlink:href="#7" y="71.643"/><use xlink:href="#6" y="73.814"/></svg><svg x="8851"><use xlink:href="#a"/><use xlink:href="#b" x="-.004" y="84.644"/><use xlink:href="#1"/><use xlink:href="#2" y="2.171"/><use xlink:href="#2" y="4.342"/><use xlink:href="#5" y="6.513"/><use xlink:href="#8" y="10.855"/><use xlink:href="#9" y="13.026"/><use xlink:href="#10" y="15.197"/><use xlink:href="#11" y="17.368"/><use xlink:href="#12" y="19.539"/><use xlink:href="#11" y="21.71"/><use xlink:href="#11" y="23.881"/><use xlink:href="#13" y="26.052"/><use xlink:href="#14" y="28.223"/><use xlink:href="#9" y="30.394"/><use xlink:href="#15" y="32.565"/><use xlink:href="#16" y="34.736"/><use xlink:href="#17" y="36.907"/><use xlink:href="#18" y="39.078"/><use xlink:href="#19" y="41.249"/><use xlink:href="#20" y="43.42"/><use xlink:href="#21" y="45.591"/><use xlink:href="#22" y="47.762"/><use xlink:href="#23" y="49.933"/><use xlink:href="#24" y="54.275"/><use xlink:href="#25" y="56.446"/><use xlink:href="#26" y="58.617"/><use xlink:href="#27" y="60.788"/><use xlink:href="#28" y="62.959"/><use xlink:href="#29" y="65.13"/><use xlink:href="#30" y="67.301"/><use xlink:href="#31" y="69.472"/><use xlink:href="#32" y="73.814"/><use xlink:href="#33" y="75.985"/><use xlink:href="#34" y="78.156"/><use xlink:href="#35" y="82.498"/></svg><svg x="9018"><use xlink:href="#a"/><use xlink:href="#b" x="-.004" y="91.157"/><use xlink:href="#1"/><use xlink:href="#2" y="2.171"/><use xlink:href="#2" y="4.342"/><use xlink:href="#5" y="6.513"/><use xlink:href="#8" y="10.855"/><use xlink:href="#9" y="13.026"/><use xlink:href="#10" y="15.197"/><use xlink:href="#11" y="17.368"/><use xlink:href="#12" y="19.539"/><use xlink:href="#11" y="21.71"/><use xlink:href="#11" y="23.881"/><use xlink:href="#13" y="26.052"/><use xlink:href="#14" y="28.223"/><use xlink:href="#9" y="30.394"/><use xlink:href="#15" y="32.565"/><use xlink:href="#16" y="34.736"/><use xlink:href="#17" y="36.907"/><use xlink:href="#18" y="39.078"/><use xlink:href="#19" y="41.249"/><use xlink:href="#20" y="43.42"/><use xlink:href="#21" y="45.591"/><use xlink:href="#22" y="47.762"/><use xlink:href="#23" y="49.933"/><use xlink:href="#24" y="54.275"/><use xlink:href="#25" y="56.446"/><use xlink:href="#26" y="58.617"/><use xlink:href="#27" y="60.788"/><use xlink:href="#28" y="62.959"/><use xlink:href="#29" y="65.13"/><use xlink:href="#30" y="67.301"/><use xlink:href="#31" y="69.472"/><use xlink:href="#32" y="73.814"/><use xlink:href="#33" y="75.985"/><use xlink:href="#34" y="78.156"/><use xlink:href="#35" y="82.498"/><use xlink:href="#36" y="84.669"/><text y="88.51" class="o">&lt;-------------&gt;</text><text x="16.032" y="88.51" class="o">0%</text><text x="19.038" y="88.51" class="o">WAITING</text><use xlink:href="#6" y="89.011"/></svg><svg x="9185"><use xlink:href="#a"/><use xlink:href="#b" x="-.004" y="86.815"/><use xlink:href="#1"/><use xlink:href="#2" y="2.171"/><use xlink:href="#2" y="4.342"/><use xlink:href="#5" y="6.513"/><use xlink:href="#8" y="10.855"/><use xlink:href="#9" y="13.026"/><use xlink:href="#10" y="15.197"/><use xlink:href="#11" y="17.368"/><use xlink:href="#12" y="19.539"/><use xlink:href="#11" y="21.71"/><use xlink:href="#11" y="23.881"/><use xlink:href="#13" y="26.052"/><use xlink:href="#14" y="28.223"/><use xlink:href="#9" y="30.394"/><use xlink:href="#15" y="32.565"/><use xlink:href="#16" y="34.736"/><use xlink:href="#17" y="36.907"/><use xlink:href="#18" y="39.078"/><use xlink:href="#19" y="41.249"/><use xlink:href="#20" y="43.42"/><use xlink:href="#21" y="45.591"/><use xlink:href="#22" y="47.762"/><use xlink:href="#23" y="49.933"/><use xlink:href="#24" y="54.275"/><use xlink:href="#25" y="56.446"/><use xlink:href="#26" y="58.617"/><use xlink:href="#27" y="60.788"/><use xlink:href="#28" y="62.959"/><use xlink:href="#29" y="65.13"/><use xlink:href="#30" y="67.301"/><use xlink:href="#31" y="69.472"/><use xlink:href="#32" y="73.814"/><use xlink:href="#33" y="75.985"/><use xlink:href="#34" y="78.156"/><use xlink:href="#35" y="82.498"/><use xlink:href="#36" y="84.669"/></svg><svg x="9352"><use xlink:href="#a"/><use xlink:href="#b" x="-.004" y="86.815"/><use xlink:href="#1"/><use xlink:href="#2" y="2.171"/><use xlink:href="#2" y="4.342"/><use xlink:href="#5" y="6.513"/><use xlink:href="#8" y="10.855"/><use xlink:href="#9" y="13.026"/><use xlink:href="#10" y="15.197"/><use xlink:href="#11" y="17.368"/><use xlink:href="#12" y="19.539"/><use xlink:href="#11" y="21.71"/><use xlink:href="#11" y="23.881"/><use xlink:href="#13" y="26.052"/><use xlink:href="#14" y="28.223"/><use xlink:href="#9" y="30.394"/><use xlink:href="#15" y="32.565"/><use xlink:href="#16" y="34.736"/><use xlink:href="#17" y="36.907"/><use xlink:href="#18" y="39.078"/><use xlink:href="#19" y="41.249"/><use xlink:href="#20" y="43.42"/><use xlink:href="#21" y="45.591"/><use xlink:href="#22" y="47.762"/><use xlink:href="#23" y="49.933"/><use xlink:href="#24" y="54.275"/><use xlink:href="#25" y="56.446"/><use xlink:href="#26" y="58.617"/><use xlink:href="#27" y="60.788"/><use xlink:href="#28" y="62.959"/><use xlink:href="#29" y="65.13"/><use xlink:href="#30" y="67.301"/><use xlink:href="#31" y="69.472"/><use xlink:href="#32" y="73.814"/><use xlink:href="#33" y="75.985"/><use xlink:href="#34" y="78.156"/><use xlink:href="#35" y="82.498"/><use xlink:href="#36" y="84.669"/></svg><svg x="9519"><use xlink:href="#a"/><use xlink:href="#b" x="-.004" y="86.815"/><use xlink:href="#1"/><use xlink:href="#2" y="2.171"/><use xlink:href="#2" y="4.342"/><use xlink:href="#5" y="6.513"/><use xlink:href="#8" y="10.855"/><use xlink:href="#9" y="13.026"/><use xlink:href="#10" y="15.197"/><use xlink:href="#11" y="17.368"/><use xlink:href="#12" y="19.539"/><use xlink:href="#11" y="21.71"/><use xlink:href="#11" y="23.881"/><use xlink:href="#13" y="26.052"/><use xlink:href="#14" y="28.223"/><use xlink:href="#9" y="30.394"/><use xlink:href="#15" y="32.565"/><use xlink:href="#16" y="34.736"/><use xlink:href="#17" y="36.907"/><use xlink:href="#18" y="39.078"/><use xlink:href="#19" y="41.249"/><use xlink:href="#20" y="43.42"/><use xlink:href="#21" y="45.591"/><use xlink:href="#22" y="47.762"/><use xlink:href="#23" y="49.933"/><use xlink:href="#24" y="54.275"/><use xlink:href="#25" y="56.446"/><use xlink:href="#26" y="58.617"/><use xlink:href="#27" y="60.788"/><use xlink:href="#28" y="62.959"/><use xlink:href="#29" y="65.13"/><use xlink:href="#30" y="67.301"/><use xlink:href="#31" y="69.472"/><use xlink:href="#32" y="73.814"/><use xlink:href="#33" y="75.985"/><use xlink:href="#34" y="78.156"/><use xlink:href="#35" y="82.498"/><use xlink:href="#36" y="84.669"/></svg><svg x="9686"><use xlink:href="#a"/><use xlink:href="#b" x="-.004" y="86.815"/><use xlink:href="#1"/><use xlink:href="#2" y="2.171"/><use xlink:href="#2" y="4.342"/><use xlink:href="#5" y="6.513"/><use xlink:href="#8" y="10.855"/><use xlink:href="#9" y="13.026"/><use xlink:href="#10" y="15.197"/><use xlink:href="#11" y="17.368"/><use xlink:href="#12" y="19.539"/><use xlink:href="#11" y="21.71"/><use xlink:href="#11" y="23.881"/><use xlink:href="#13" y="26.052"/><use xlink:href="#14" y="28.223"/><use xlink:href="#9" y="30.394"/><use xlink:href="#15" y="32.565"/><use xlink:href="#16" y="34.736"/><use xlink:href="#17" y="36.907"/><use xlink:href="#18" y="39.078"/><use xlink:href="#19" y="41.249"/><use xlink:href="#20" y="43.42"/><use xlink:href="#21" y="45.591"/><use xlink:href="#22" y="47.762"/><use xlink:href="#23" y="49.933"/><use xlink:href="#24" y="54.275"/><use xlink:href="#25" y="56.446"/><use xlink:href="#26" y="58.617"/><use xlink:href="#27" y="60.788"/><use xlink:href="#28" y="62.959"/><use xlink:href="#29" y="65.13"/><use xlink:href="#30" y="67.301"/><use xlink:href="#31" y="69.472"/><use xlink:href="#32" y="73.814"/><use xlink:href="#33" y="75.985"/><use xlink:href="#34" y="78.156"/><use xlink:href="#35" y="82.498"/><use xlink:href="#36" y="84.669"/></svg><svg x="9853"><use xlink:href="#a"/><use xlink:href="#b" x="33.996" y="86.815"/><use xlink:href="#1"/><use xlink:href="#2" y="2.171"/><use xlink:href="#2" y="4.342"/><use xlink:href="#5" y="6.513"/><use xlink:href="#8" y="10.855"/><use xlink:href="#9" y="13.026"/><use xlink:href="#10" y="15.197"/><use xlink:href="#11" y="17.368"/><use xlink:href="#12" y="19.539"/><use xlink:href="#11" y="21.71"/><use xlink:href="#11" y="23.881"/><use xlink:href="#13" y="26.052"/><use xlink:href="#14" y="28.223"/><use xlink:href="#9" y="30.394"/><use xlink:href="#15" y="32.565"/><use xlink:href="#16" y="34.736"/><use xlink:href="#17" y="36.907"/><use xlink:href="#18" y="39.078"/><use xlink:href="#19" y="41.249"/><use xlink:href="#20" y="43.42"/><use xlink:href="#21" y="45.591"/><use xlink:href="#22" y="47.762"/><use xlink:href="#23" y="49.933"/><use xlink:href="#24" y="54.275"/><use xlink:href="#25" y="56.446"/><use xlink:href="#26" y="58.617"/><use xlink:href="#27" y="60.788"/><use xlink:href="#28" y="62.959"/><use xlink:href="#29" y="65.13"/><use xlink:href="#30" y="67.301"/><use xlink:href="#31" y="69.472"/><use xlink:href="#32" y="73.814"/><use xlink:href="#33" y="75.985"/><use xlink:href="#34" y="78.156"/><use xlink:href="#35" y="82.498"/><use xlink:href="#36" y="84.669"/><use xlink:href="#2" y="86.84"/></svg><svg x="10020"><use xlink:href="#a"/><use xlink:href="#b" x="33.996" y="86.815"/><use xlink:href="#1"/><use xlink:href="#2" y="2.171"/><use xlink:href="#2" y="4.342"/><use xlink:href="#5" y="6.513"/><use xlink:href="#8" y="10.855"/><use xlink:href="#9" y="13.026"/><use xlink:href="#10" y="15.197"/><use xlink:href="#11" y="17.368"/><use xlink:href="#12" y="19.539"/><use xlink:href="#11" y="21.71"/><use xlink:href="#11" y="23.881"/><use xlink:href="#13" y="26.052"/><use xlink:href="#14" y="28.223"/><use xlink:href="#9" y="30.394"/><use xlink:href="#15" y="32.565"/><use xlink:href="#16" y="34.736"/><use xlink:href="#17" y="36.907"/><use xlink:href="#18" y="39.078"/><use xlink:href="#19" y="41.249"/><use xlink:href="#20" y="43.42"/><use xlink:href="#21" y="45.591"/><use xlink:href="#22" y="47.762"/><use xlink:href="#23" y="49.933"/><use xlink:href="#24" y="54.275"/><use xlink:href="#25" y="56.446"/><use xlink:href="#26" y="58.617"/><use xlink:href="#27" y="60.788"/><use xlink:href="#28" y="62.959"/><use xlink:href="#29" y="65.13"/><use xlink:href="#30" y="67.301"/><use xlink:href="#31" y="69.472"/><use xlink:href="#32" y="73.814"/><use xlink:href="#33" y="75.985"/><use xlink:href="#34" y="78.156"/><use xlink:href="#35" y="82.498"/><use xlink:href="#36" y="84.669"/><use xlink:href="#2" y="86.84"/></svg><svg x="10187"><use xlink:href="#a"/><use xlink:href="#b" x="33.996" y="86.815"/><use xlink:href="#1"/><use xlink:href="#2" y="2.171"/><use xlink:href="#2" y="4.342"/><use xlink:href="#5" y="6.513"/><use xlink:href="#8" y="10.855"/><use xlink:href="#9" y="13.026"/><use xlink:href="#10" y="15.197"/><use xlink:href="#11" y="17.368"/><use xlink:href="#12" y="19.539"/><use xlink:href="#11" y="21.71"/><use xlink:href="#11" y="23.881"/><use xlink:href="#13" y="26.052"/><use xlink:href="#14" y="28.223"/><use xlink:href="#9" y="30.394"/><use xlink:href="#15" y="32.565"/><use xlink:href="#16" y="34.736"/><use xlink:href="#17" y="36.907"/><use xlink:href="#18" y="39.078"/><use xlink:href="#19" y="41.249"/><use xlink:href="#20" y="43.42"/><use xlink:href="#21" y="45.591"/><use xlink:href="#22" y="47.762"/><use xlink:href="#23" y="49.933"/><use xlink:href="#24" y="54.275"/><use xlink:href="#25" y="56.446"/><use xlink:href="#26" y="58.617"/><use xlink:href="#27" y="60.788"/><use xlink:href="#28" y="62.959"/><use xlink:href="#29" y="65.13"/><use xlink:href="#30" y="67.301"/><use xlink:href="#31" y="69.472"/><use xlink:href="#32" y="73.814"/><use xlink:href="#33" y="75.985"/><use xlink:href="#34" y="78.156"/><use xlink:href="#35" y="82.498"/><use xlink:href="#36" y="84.669"/><use xlink:href="#2" y="86.84"/></svg><svg x="10354"><use xlink:href="#a"/><use xlink:href="#b" x="-.004" y="88.986"/><use xlink:href="#1"/><use xlink:href="#2" y="2.171"/><use xlink:href="#2" y="4.342"/><use xlink:href="#5" y="6.513"/><use xlink:href="#8" y="10.855"/><use xlink:href="#9" y="13.026"/><use xlink:href="#10" y="15.197"/><use xlink:href="#11" y="17.368"/><use xlink:href="#12" y="19.539"/><use xlink:href="#11" y="21.71"/><use xlink:href="#11" y="23.881"/><use xlink:href="#13" y="26.052"/><use xlink:href="#14" y="28.223"/><use xlink:href="#9" y="30.394"/><use xlink:href="#15" y="32.565"/><use xlink:href="#16" y="34.736"/><use xlink:href="#17" y="36.907"/><use xlink:href="#18" y="39.078"/><use xlink:href="#19" y="41.249"/><use xlink:href="#20" y="43.42"/><use xlink:href="#21" y="45.591"/><use xlink:href="#22" y="47.762"/><use xlink:href="#23" y="49.933"/><use xlink:href="#24" y="54.275"/><use xlink:href="#25" y="56.446"/><use xlink:href="#26" y="58.617"/><use xlink:href="#27" y="60.788"/><use xlink:href="#28" y="62.959"/><use xlink:href="#29" y="65.13"/><use xlink:href="#30" y="67.301"/><use xlink:href="#31" y="69.472"/><use xlink:href="#32" y="73.814"/><use xlink:href="#33" y="75.985"/><use xlink:href="#34" y="78.156"/><use xlink:href="#35" y="82.498"/><use xlink:href="#36" y="84.669"/><use xlink:href="#2" y="86.84"/></svg></svg></g></g></svg></svg>