<svg xmlns="http://www.w3.org/2000/svg" xmlns:xlink="http://www.w3.org/1999/xlink" width="1710" height="537.62"><rect width="1710" height="537.62" rx="5" ry="5" class="a"/><svg y="0%" x="0%"><circle cx="20" cy="20" r="6" fill="#ff5f58"/><circle cx="40" cy="20" r="6" fill="#ffbd2e"/><circle cx="60" cy="20" r="6" fill="#18c132"/></svg><svg height="477.62" viewBox="0 0 167 47.762" width="1670" x="15" xmlns="http://www.w3.org/2000/svg" xmlns:xlink="http://www.w3.org/1999/xlink" y="50"><style>@keyframes r{0%{transform:translateX(0)}2.44%{transform:translateX(-167px)}2.56%{transform:translateX(-501px)}2.86%{transform:translateX(-1002px)}10.79%{transform:translateX(-1169px)}11.02%{transform:translateX(-1336px)}11.24%{transform:translateX(-1503px)}11.89%{transform:translateX(-1670px)}12.28%{transform:translateX(-1837px)}14.42%{transform:translateX(-2004px)}14.91%{transform:translateX(-2171px)}15.65%{transform:translateX(-2338px)}15.96%{transform:translateX(-2505px)}16.24%{transform:translateX(-2672px)}18.68%{transform:translateX(-2839px)}20.23%{transform:translateX(-3006px)}23.66%{transform:translateX(-3173px)}23.67%{transform:translateX(-3507px)}26.63%{transform:translateX(-3674px)}26.64%{transform:translateX(-3841px)}34.56%{transform:translateX(-4509px)}42.49%{transform:translateX(-5010px)}50.41%{transform:translateX(-5177px)}50.63%{transform:translateX(-5344px)}52.14%{transform:translateX(-5511px)}52.6%{transform:translateX(-5678px)}53.11%{transform:translateX(-5845px)}53.92%{transform:translateX(-6012px)}54.43%{transform:translateX(-6179px)}54.75%{transform:translateX(-6346px)}55.04%{transform:translateX(-6513px)}55.64%{transform:translateX(-6680px)}56.1%{transform:translateX(-6847px)}56.4%{transform:translateX(-7014px)}57.32%{transform:translateX(-7181px)}58.06%{transform:translateX(-7348px)}65.99%{transform:translateX(-7515px)}73.91%{transform:translateX(-7682px)}74.66%{transform:translateX(-7849px)}75.06%{transform:translateX(-8016px)}75.83%{transform:translateX(-8183px)}76.31%{transform:translateX(-8350px)}76.97%{transform:translateX(-8517px)}77.49%{transform:translateX(-8684px)}78.08%{transform:translateX(-8851px)}79.34%{transform:translateX(-9018px)}79.8%{transform:translateX(-9185px)}80.66%{transform:translateX(-9352px)}87.02%{transform:translateX(-9519px)}93.71%{transform:translateX(-9686px)}94.5%{transform:translateX(-10020px)}95.88%{transform:translateX(-10354px)}96.19%{transform:translateX(-10855px)}to{transform:translateX(-11022px)}}.a{fill:#282d35}.f{fill:#b9c0cb}.f,.g,.h{white-space:pre}.g{fill:#a8cc8c;font-weight:700}.h{fill:#66c2cd}.h,.i,.j{font-weight:700}.i{fill:#71bef2;white-space:pre}.j{fill:#e88388}.j,.k,.l,.m{white-space:pre}.k{fill:#b9c0cb;text-decoration:underline}.l,.m{fill:#6f7783}.m{fill:#a8cc8c}</style><g font-family="Monaco,Consolas,Menlo,'Bitstream Vera Sans Mono','Powerline Symbols',monospace" font-size="1.67"><defs><symbol id="12"><text y="1.67" class="f">***</text><text x="4.008" y="1.67" class="f">You</text><text x="8.016" y="1.67" class="f">are</text><text x="12.024" y="1.67" class="f">now</text><text x="16.032" y="1.67" class="f">connected</text><text x="26.052" y="1.67" class="f">to</text><text x="29.058" y="1.67" class="f">NetCat</text><text x="36.072" y="1.67" class="f">1.0</text><text x="40.08" y="1.67" class="f">***</text></symbol><symbol id="1"><text y="1.67" class="f">pyenv:</text><text x="7.014" y="1.67" class="f">no</text><text x="10.02" y="1.67" class="f">such</text><text x="15.03" y="1.67" class="f">command</text><text x="23.046" y="1.67" class="f">`virtualenv-init&apos;</text></symbol><symbol id="3"><text y="1.67" class="g">➜</text><text x="3.006" y="1.67" class="h">Java-Netcat</text><text x="15.03" y="1.67" class="i">git:(</text><text x="20.04" y="1.67" class="j">master</text><text x="26.052" y="1.67" class="i">)</text><text x="28.056" y="1.67" class="k">./g</text><text x="31.062" y="1.67" class="l">radlew</text><text x="38.076" y="1.67" class="l">client</text><text x="45.09" y="1.67" class="l">--console=plain</text></symbol><symbol id="4"><text y="1.67" class="g">➜</text><text x="3.006" y="1.67" class="h">Java-Netcat</text><text x="15.03" y="1.67" class="i">git:(</text><text x="20.04" y="1.67" class="j">master</text><text x="26.052" y="1.67" class="i">)</text><text x="28.056" y="1.67" class="j">./ga</text></symbol><symbol id="5"><text y="1.67" class="g">➜</text><text x="3.006" y="1.67" class="h">Java-Netcat</text><text x="15.03" y="1.67" class="i">git:(</text><text x="20.04" y="1.67" class="j">master</text><text x="26.052" y="1.67" class="i">)</text><text x="28.056" y="1.67" class="k">./gra</text><text x="33.066" y="1.67" class="l">dlew</text><text x="38.076" y="1.67" class="l">client</text><text x="45.09" y="1.67" class="l">--console=plain</text></symbol><symbol id="6"><text y="1.67" class="g">➜</text><text x="3.006" y="1.67" class="h">Java-Netcat</text><text x="15.03" y="1.67" class="i">git:(</text><text x="20.04" y="1.67" class="j">master</text><text x="26.052" y="1.67" class="i">)</text><text x="28.056" y="1.67" class="m">./gradlew</text><text x="38.076" y="1.67" class="f">client</text><text x="45.09" y="1.67" class="f">--console=plain</text></symbol><symbol id="7"><text y="1.67" class="f">Starting</text><text x="9.018" y="1.67" class="f">a</text><text x="11.022" y="1.67" class="f">Gradle</text><text x="18.036" y="1.67" class="f">Daemon,</text><text x="26.052" y="1.67" class="f">1</text><text x="28.056" y="1.67" class="f">busy</text><text x="33.066" y="1.67" class="f">and</text><text x="37.074" y="1.67" class="f">5</text><text x="39.078" y="1.67" class="f">stopped</text><text x="47.094" y="1.67" class="f">Daemons</text><text x="55.11" y="1.67" class="f">could</text><text x="61.122" y="1.67" class="f">not</text><text x="65.13" y="1.67" class="f">be</text><text x="68.136" y="1.67" class="f">reused,</text><text x="76.152" y="1.67" class="f">use</text><text x="80.16" y="1.67" class="f">--status</text><text x="89.178" y="1.67" class="f">for</text><text x="93.186" y="1.67" class="f">details</text></symbol><symbol id="8"><text y="1.67" class="f">&gt;</text><text x="2.004" y="1.67" class="f">Task</text><text x="7.014" y="1.67" class="f">:compileJava</text><text x="20.04" y="1.67" class="f">UP-TO-DATE</text></symbol><symbol id="9"><text y="1.67" class="f">&gt;</text><text x="2.004" y="1.67" class="f">Task</text><text x="7.014" y="1.67" class="f">:processResources</text><text x="25.05" y="1.67" class="f">NO-SOURCE</text></symbol><symbol id="10"><text y="1.67" class="f">&gt;</text><text x="2.004" y="1.67" class="f">Task</text><text x="7.014" y="1.67" class="f">:classes</text><text x="16.032" y="1.67" class="f">UP-TO-DATE</text></symbol><symbol id="11"><text y="1.67" class="f">&gt;</text><text x="2.004" y="1.67" class="f">Task</text><text x="7.014" y="1.67" class="f">:client</text></symbol><symbol id="2"><text y="1.67" class="g">➜</text><text x="3.006" y="1.67" class="h">Java-Netcat</text><text x="15.03" y="1.67" class="i">git:(</text><text x="20.04" y="1.67" class="j">master</text><text x="26.052" y="1.67" class="i">)</text></symbol><symbol id="13"><text y="1.67" class="f">hello</text></symbol><symbol id="14"><text y="1.67" class="f">hello</text><text x="6.012" y="1.67" class="f">server!</text></symbol><symbol id="15"><text y="1.67" class="f">hey</text><text x="4.008" y="1.67" class="f">client!</text></symbol><symbol id="16"><text y="1.67" class="f">k</text></symbol><symbol id="17"><text y="1.67" class="f">k</text><text x="2.004" y="1.67" class="f">byeeeeee</text></symbol><symbol id="18"><text y="1.67" class="f">^C</text></symbol><symbol id="19"><text y="1.67" class="f">^C</text><path fill="#b9c0cb" d="M2.004 0h1v2.171h-1z"/><text x="2.004" y="1.67" style="white-space:pre" fill="#282d35" font-weight="700">%</text></symbol><symbol id="20"><text y="1.67" class="j">➜</text><text x="3.006" y="1.67" class="h">Java-Netcat</text><text x="15.03" y="1.67" class="i">git:(</text><text x="20.04" y="1.67" class="j">master</text><text x="26.052" y="1.67" class="i">)</text></symbol><symbol id="a"><path fill="transparent" d="M0 0h167v22H0z"/></symbol><symbol id="b"><path fill="#6f7683" d="M0 0h1.102v2.171H0z"/></symbol></defs><path class="a" d="M0 0h167v47.762H0z"/><g style="animation-duration:25.235989999999997s;animation-iteration-count:infinite;animation-name:r;animation-timing-function:steps(1,end)"><svg width="11189"><svg><use xlink:href="#a"/><use xlink:href="#b" x="-.004"/></svg><svg x="167"><use xlink:href="#a"/><use xlink:href="#b" x="-.004" y="2.146"/><use xlink:href="#1"/></svg><svg x="334"><use xlink:href="#a"/><use xlink:href="#b" x="-.004" y="2.146"/><use xlink:href="#1"/></svg><svg x="501"><use xlink:href="#a"/><use xlink:href="#b" x="-.004" y="2.146"/><use xlink:href="#1"/></svg><svg x="668"><use xlink:href="#a"/><use xlink:href="#b" x="27.996" y="2.146"/><use xlink:href="#1"/><use xlink:href="#2" y="2.171"/></svg><svg x="835"><use xlink:href="#a"/><use xlink:href="#b" x="27.996" y="2.146"/><use xlink:href="#1"/><use xlink:href="#2" y="2.171"/></svg><svg x="1002"><use xlink:href="#a"/><use xlink:href="#b" x="27.996" y="2.146"/><use xlink:href="#1"/><use xlink:href="#2" y="2.171"/></svg><svg x="1169"><use xlink:href="#a"/><use xlink:href="#b" x="28.996" y="2.146"/><use xlink:href="#1"/><text y="3.841" class="g">➜</text><text x="3.006" y="3.841" class="h">Java-Netcat</text><text x="15.03" y="3.841" class="i">git:(</text><text x="20.04" y="3.841" class="j">master</text><text x="26.052" y="3.841" class="i">)</text><text x="28.056" y="3.841" class="m">.</text><text x="29.058" y="3.841" class="l">/gradlew</text><text x="38.076" y="3.841" class="l">client</text><text x="45.09" y="3.841" class="l">--console=plain</text></svg><svg x="1336"><use xlink:href="#a"/><use xlink:href="#b" x="29.996" y="2.146"/><use xlink:href="#1"/><text y="3.841" class="g">➜</text><text x="3.006" y="3.841" class="h">Java-Netcat</text><text x="15.03" y="3.841" class="i">git:(</text><text x="20.04" y="3.841" class="j">master</text><text x="26.052" y="3.841" class="i">)</text><text x="28.056" y="3.841" class="k">./</text><text x="30.06" y="3.841" class="l">gradlew</text><text x="38.076" y="3.841" class="l">client</text><text x="45.09" y="3.841" class="l">--console=plain</text></svg><svg x="1503"><use xlink:href="#a"/><use xlink:href="#b" x="30.996" y="2.146"/><use xlink:href="#1"/><use xlink:href="#3" y="2.171"/></svg><svg x="1670"><use xlink:href="#a"/><use xlink:href="#b" x="31.996" y="2.146"/><use xlink:href="#1"/><use xlink:href="#4" y="2.171"/></svg><svg x="1837"><use xlink:href="#a"/><use xlink:href="#b" x="32.996" y="2.146"/><use xlink:href="#1"/><text y="3.841" class="g">➜</text><text x="3.006" y="3.841" class="h">Java-Netcat</text><text x="15.03" y="3.841" class="i">git:(</text><text x="20.04" y="3.841" class="j">master</text><text x="26.052" y="3.841" class="i">)</text><text x="28.056" y="3.841" class="j">./gad</text></svg><svg x="2004"><use xlink:href="#a"/><use xlink:href="#b" x="31.996" y="2.146"/><use xlink:href="#1"/><use xlink:href="#4" y="2.171"/></svg><svg x="2171"><use xlink:href="#a"/><use xlink:href="#b" x="30.996" y="2.146"/><use xlink:href="#1"/><use xlink:href="#3" y="2.171"/></svg><svg x="2338"><use xlink:href="#a"/><use xlink:href="#b" x="31.996" y="2.146"/><use xlink:href="#1"/><text y="3.841" class="g">➜</text><text x="3.006" y="3.841" class="h">Java-Netcat</text><text x="15.03" y="3.841" class="i">git:(</text><text x="20.04" y="3.841" class="j">master</text><text x="26.052" y="3.841" class="i">)</text><text x="28.056" y="3.841" class="k">./gr</text><text x="32.064" y="3.841" class="l">adlew</text><text x="38.076" y="3.841" class="l">client</text><text x="45.09" y="3.841" class="l">--console=plain</text></svg><svg x="2505"><use xlink:href="#a"/><use xlink:href="#b" x="32.996" y="2.146"/><use xlink:href="#1"/><use xlink:href="#5" y="2.171"/></svg><svg x="2672"><use xlink:href="#a"/><use xlink:href="#b" x="33.996" y="2.146"/><use xlink:href="#1"/><text y="3.841" class="g">➜</text><text x="3.006" y="3.841" class="h">Java-Netcat</text><text x="15.03" y="3.841" class="i">git:(</text><text x="20.04" y="3.841" class="j">master</text><text x="26.052" y="3.841" class="i">)</text><text x="28.056" y="3.841" class="j">./graa</text></svg><svg x="2839"><use xlink:href="#a"/><use xlink:href="#b" x="32.996" y="2.146"/><use xlink:href="#1"/><use xlink:href="#5" y="2.171"/></svg><svg x="3006"><use xlink:href="#a"/><use xlink:href="#b" x="59.996" y="2.146"/><use xlink:href="#1"/><use xlink:href="#6" y="2.171"/></svg><svg x="3173"><use xlink:href="#a"/><use xlink:href="#b" x="59.996" y="2.146"/><use xlink:href="#1"/><use xlink:href="#6" y="2.171"/></svg><svg x="3340"><use xlink:href="#a"/><use xlink:href="#b" x="-.004" y="4.317"/><use xlink:href="#1"/><use xlink:href="#6" y="2.171"/></svg><svg x="3507"><use xlink:href="#a"/><use xlink:href="#b" x="-.004" y="4.317"/><use xlink:href="#1"/><use xlink:href="#6" y="2.171"/></svg><svg x="3674"><use xlink:href="#a"/><use xlink:href="#b" x="99.996" y="4.317"/><use xlink:href="#1"/><use xlink:href="#6" y="2.171"/><use xlink:href="#7" y="4.342"/></svg><svg x="3841"><use xlink:href="#a"/><use xlink:href="#b" x="-.004" y="6.488"/><use xlink:href="#1"/><use xlink:href="#6" y="2.171"/><use xlink:href="#7" y="4.342"/></svg><svg x="4008"><use xlink:href="#a"/><use xlink:href="#b" x="18.996" y="6.488"/><use xlink:href="#1"/><use xlink:href="#6" y="2.171"/><use xlink:href="#7" y="4.342"/><text y="8.183" class="f">&gt;</text><text x="2.004" y="8.183" class="f">Task</text><text x="7.014" y="8.183" class="f">:compileJava</text></svg><svg x="4175"><use xlink:href="#a"/><use xlink:href="#b" x="-.004" y="8.659"/><use xlink:href="#1"/><use xlink:href="#6" y="2.171"/><use xlink:href="#7" y="4.342"/><use xlink:href="#8" y="6.513"/></svg><svg x="4342"><use xlink:href="#a"/><use xlink:href="#b" x="25.996" y="10.83"/><use xlink:href="#1"/><use xlink:href="#6" y="2.171"/><use xlink:href="#7" y="4.342"/><use xlink:href="#8" y="6.513"/><use xlink:href="#9" y="8.684"/><use xlink:href="#10" y="10.855"/></svg><svg x="4509"><use xlink:href="#a"/><use xlink:href="#b" x="-.004" y="13.001"/><use xlink:href="#1"/><use xlink:href="#6" y="2.171"/><use xlink:href="#7" y="4.342"/><use xlink:href="#8" y="6.513"/><use xlink:href="#9" y="8.684"/><use xlink:href="#10" y="10.855"/></svg><svg x="4676"><use xlink:href="#a"/><use xlink:href="#b" x="-.004" y="15.172"/><use xlink:href="#1"/><use xlink:href="#6" y="2.171"/><use xlink:href="#7" y="4.342"/><use xlink:href="#8" y="6.513"/><use xlink:href="#9" y="8.684"/><use xlink:href="#10" y="10.855"/></svg><svg x="4843"><use xlink:href="#a"/><use xlink:href="#b" x="-.004" y="17.343"/><use xlink:href="#1"/><use xlink:href="#6" y="2.171"/><use xlink:href="#7" y="4.342"/><use xlink:href="#8" y="6.513"/><use xlink:href="#9" y="8.684"/><use xlink:href="#10" y="10.855"/><use xlink:href="#11" y="15.197"/></svg><svg x="5010"><use xlink:href="#a"/><use xlink:href="#b" x="-.004" y="21.685"/><use xlink:href="#1"/><use xlink:href="#6" y="2.171"/><use xlink:href="#7" y="4.342"/><use xlink:href="#8" y="6.513"/><use xlink:href="#9" y="8.684"/><use xlink:href="#10" y="10.855"/><use xlink:href="#11" y="15.197"/><use xlink:href="#12" y="17.368"/></svg><svg x="5177"><use xlink:href="#a"/><use xlink:href="#b" x=".996" y="21.685"/><use xlink:href="#1"/><use xlink:href="#6" y="2.171"/><use xlink:href="#7" y="4.342"/><use xlink:href="#8" y="6.513"/><use xlink:href="#9" y="8.684"/><use xlink:href="#10" y="10.855"/><use xlink:href="#11" y="15.197"/><use xlink:href="#12" y="17.368"/><text y="23.38" class="f">h</text></svg><svg x="5344"><use xlink:href="#a"/><use xlink:href="#b" x="1.996" y="21.685"/><use xlink:href="#1"/><use xlink:href="#6" y="2.171"/><use xlink:href="#7" y="4.342"/><use xlink:href="#8" y="6.513"/><use xlink:href="#9" y="8.684"/><use xlink:href="#10" y="10.855"/><use xlink:href="#11" y="15.197"/><use xlink:href="#12" y="17.368"/><text y="23.38" class="f">he</text></svg><svg x="5511"><use xlink:href="#a"/><use xlink:href="#b" x="2.996" y="21.685"/><use xlink:href="#1"/><use xlink:href="#6" y="2.171"/><use xlink:href="#7" y="4.342"/><use xlink:href="#8" y="6.513"/><use xlink:href="#9" y="8.684"/><use xlink:href="#10" y="10.855"/><use xlink:href="#11" y="15.197"/><use xlink:href="#12" y="17.368"/><text y="23.38" class="f">hel</text></svg><svg x="5678"><use xlink:href="#a"/><use xlink:href="#b" x="3.996" y="21.685"/><use xlink:href="#1"/><use xlink:href="#6" y="2.171"/><use xlink:href="#7" y="4.342"/><use xlink:href="#8" y="6.513"/><use xlink:href="#9" y="8.684"/><use xlink:href="#10" y="10.855"/><use xlink:href="#11" y="15.197"/><use xlink:href="#12" y="17.368"/><text y="23.38" class="f">hell</text></svg><svg x="5845"><use xlink:href="#a"/><use xlink:href="#b" x="4.996" y="21.685"/><use xlink:href="#1"/><use xlink:href="#6" y="2.171"/><use xlink:href="#7" y="4.342"/><use xlink:href="#8" y="6.513"/><use xlink:href="#9" y="8.684"/><use xlink:href="#10" y="10.855"/><use xlink:href="#11" y="15.197"/><use xlink:href="#12" y="17.368"/><use xlink:href="#13" y="21.71"/></svg><svg x="6012"><use xlink:href="#a"/><use xlink:href="#b" x="5.996" y="21.685"/><use xlink:href="#1"/><use xlink:href="#6" y="2.171"/><use xlink:href="#7" y="4.342"/><use xlink:href="#8" y="6.513"/><use xlink:href="#9" y="8.684"/><use xlink:href="#10" y="10.855"/><use xlink:href="#11" y="15.197"/><use xlink:href="#12" y="17.368"/><use xlink:href="#13" y="21.71"/></svg><svg x="6179"><use xlink:href="#a"/><use xlink:href="#b" x="6.996" y="21.685"/><use xlink:href="#1"/><use xlink:href="#6" y="2.171"/><use xlink:href="#7" y="4.342"/><use xlink:href="#8" y="6.513"/><use xlink:href="#9" y="8.684"/><use xlink:href="#10" y="10.855"/><use xlink:href="#11" y="15.197"/><use xlink:href="#12" y="17.368"/><text y="23.38" class="f">hello</text><text x="6.012" y="23.38" class="f">s</text></svg><svg x="6346"><use xlink:href="#a"/><use xlink:href="#b" x="7.996" y="21.685"/><use xlink:href="#1"/><use xlink:href="#6" y="2.171"/><use xlink:href="#7" y="4.342"/><use xlink:href="#8" y="6.513"/><use xlink:href="#9" y="8.684"/><use xlink:href="#10" y="10.855"/><use xlink:href="#11" y="15.197"/><use xlink:href="#12" y="17.368"/><text y="23.38" class="f">hello</text><text x="6.012" y="23.38" class="f">se</text></svg><svg x="6513"><use xlink:href="#a"/><use xlink:href="#b" x="8.996" y="21.685"/><use xlink:href="#1"/><use xlink:href="#6" y="2.171"/><use xlink:href="#7" y="4.342"/><use xlink:href="#8" y="6.513"/><use xlink:href="#9" y="8.684"/><use xlink:href="#10" y="10.855"/><use xlink:href="#11" y="15.197"/><use xlink:href="#12" y="17.368"/><text y="23.38" class="f">hello</text><text x="6.012" y="23.38" class="f">ser</text></svg><svg x="6680"><use xlink:href="#a"/><use xlink:href="#b" x="9.996" y="21.685"/><use xlink:href="#1"/><use xlink:href="#6" y="2.171"/><use xlink:href="#7" y="4.342"/><use xlink:href="#8" y="6.513"/><use xlink:href="#9" y="8.684"/><use xlink:href="#10" y="10.855"/><use xlink:href="#11" y="15.197"/><use xlink:href="#12" y="17.368"/><text y="23.38" class="f">hello</text><text x="6.012" y="23.38" class="f">serv</text></svg><svg x="6847"><use xlink:href="#a"/><use xlink:href="#b" x="10.996" y="21.685"/><use xlink:href="#1"/><use xlink:href="#6" y="2.171"/><use xlink:href="#7" y="4.342"/><use xlink:href="#8" y="6.513"/><use xlink:href="#9" y="8.684"/><use xlink:href="#10" y="10.855"/><use xlink:href="#11" y="15.197"/><use xlink:href="#12" y="17.368"/><text y="23.38" class="f">hello</text><text x="6.012" y="23.38" class="f">serve</text></svg><svg x="7014"><use xlink:href="#a"/><use xlink:href="#b" x="11.996" y="21.685"/><use xlink:href="#1"/><use xlink:href="#6" y="2.171"/><use xlink:href="#7" y="4.342"/><use xlink:href="#8" y="6.513"/><use xlink:href="#9" y="8.684"/><use xlink:href="#10" y="10.855"/><use xlink:href="#11" y="15.197"/><use xlink:href="#12" y="17.368"/><text y="23.38" class="f">hello</text><text x="6.012" y="23.38" class="f">server</text></svg><svg x="7181"><use xlink:href="#a"/><use xlink:href="#b" x="12.996" y="21.685"/><use xlink:href="#1"/><use xlink:href="#6" y="2.171"/><use xlink:href="#7" y="4.342"/><use xlink:href="#8" y="6.513"/><use xlink:href="#9" y="8.684"/><use xlink:href="#10" y="10.855"/><use xlink:href="#11" y="15.197"/><use xlink:href="#12" y="17.368"/><use xlink:href="#14" y="21.71"/></svg><svg x="7348"><use xlink:href="#a"/><use xlink:href="#b" x="-.004" y="23.856"/><use xlink:href="#1"/><use xlink:href="#6" y="2.171"/><use xlink:href="#7" y="4.342"/><use xlink:href="#8" y="6.513"/><use xlink:href="#9" y="8.684"/><use xlink:href="#10" y="10.855"/><use xlink:href="#11" y="15.197"/><use xlink:href="#12" y="17.368"/><use xlink:href="#14" y="21.71"/></svg><svg x="7515"><use xlink:href="#a"/><use xlink:href="#b" x="-.004" y="28.198"/><use xlink:href="#1"/><use xlink:href="#6" y="2.171"/><use xlink:href="#7" y="4.342"/><use xlink:href="#8" y="6.513"/><use xlink:href="#9" y="8.684"/><use xlink:href="#10" y="10.855"/><use xlink:href="#11" y="15.197"/><use xlink:href="#12" y="17.368"/><use xlink:href="#14" y="21.71"/><use xlink:href="#15" y="23.881"/></svg><svg x="7682"><use xlink:href="#a"/><use xlink:href="#b" x=".996" y="28.198"/><use xlink:href="#1"/><use xlink:href="#6" y="2.171"/><use xlink:href="#7" y="4.342"/><use xlink:href="#8" y="6.513"/><use xlink:href="#9" y="8.684"/><use xlink:href="#10" y="10.855"/><use xlink:href="#11" y="15.197"/><use xlink:href="#12" y="17.368"/><use xlink:href="#14" y="21.71"/><use xlink:href="#15" y="23.881"/><use xlink:href="#16" y="28.223"/></svg><svg x="7849"><use xlink:href="#a"/><use xlink:href="#b" x="1.996" y="28.198"/><use xlink:href="#1"/><use xlink:href="#6" y="2.171"/><use xlink:href="#7" y="4.342"/><use xlink:href="#8" y="6.513"/><use xlink:href="#9" y="8.684"/><use xlink:href="#10" y="10.855"/><use xlink:href="#11" y="15.197"/><use xlink:href="#12" y="17.368"/><use xlink:href="#14" y="21.71"/><use xlink:href="#15" y="23.881"/><use xlink:href="#16" y="28.223"/></svg><svg x="8016"><use xlink:href="#a"/><use xlink:href="#b" x="2.996" y="28.198"/><use xlink:href="#1"/><use xlink:href="#6" y="2.171"/><use xlink:href="#7" y="4.342"/><use xlink:href="#8" y="6.513"/><use xlink:href="#9" y="8.684"/><use xlink:href="#10" y="10.855"/><use xlink:href="#11" y="15.197"/><use xlink:href="#12" y="17.368"/><use xlink:href="#14" y="21.71"/><use xlink:href="#15" y="23.881"/><text y="29.893" class="f">k</text><text x="2.004" y="29.893" class="f">b</text></svg><svg x="8183"><use xlink:href="#a"/><use xlink:href="#b" x="3.996" y="28.198"/><use xlink:href="#1"/><use xlink:href="#6" y="2.171"/><use xlink:href="#7" y="4.342"/><use xlink:href="#8" y="6.513"/><use xlink:href="#9" y="8.684"/><use xlink:href="#10" y="10.855"/><use xlink:href="#11" y="15.197"/><use xlink:href="#12" y="17.368"/><use xlink:href="#14" y="21.71"/><use xlink:href="#15" y="23.881"/><text y="29.893" class="f">k</text><text x="2.004" y="29.893" class="f">by</text></svg><svg x="8350"><use xlink:href="#a"/><use xlink:href="#b" x="4.996" y="28.198"/><use xlink:href="#1"/><use xlink:href="#6" y="2.171"/><use xlink:href="#7" y="4.342"/><use xlink:href="#8" y="6.513"/><use xlink:href="#9" y="8.684"/><use xlink:href="#10" y="10.855"/><use xlink:href="#11" y="15.197"/><use xlink:href="#12" y="17.368"/><use xlink:href="#14" y="21.71"/><use xlink:href="#15" y="23.881"/><text y="29.893" class="f">k</text><text x="2.004" y="29.893" class="f">bye</text></svg><svg x="8517"><use xlink:href="#a"/><use xlink:href="#b" x="5.996" y="28.198"/><use xlink:href="#1"/><use xlink:href="#6" y="2.171"/><use xlink:href="#7" y="4.342"/><use xlink:href="#8" y="6.513"/><use xlink:href="#9" y="8.684"/><use xlink:href="#10" y="10.855"/><use xlink:href="#11" y="15.197"/><use xlink:href="#12" y="17.368"/><use xlink:href="#14" y="21.71"/><use xlink:href="#15" y="23.881"/><text y="29.893" class="f">k</text><text x="2.004" y="29.893" class="f">byee</text></svg><svg x="8684"><use xlink:href="#a"/><use xlink:href="#b" x="6.996" y="28.198"/><use xlink:href="#1"/><use xlink:href="#6" y="2.171"/><use xlink:href="#7" y="4.342"/><use xlink:href="#8" y="6.513"/><use xlink:href="#9" y="8.684"/><use xlink:href="#10" y="10.855"/><use xlink:href="#11" y="15.197"/><use xlink:href="#12" y="17.368"/><use xlink:href="#14" y="21.71"/><use xlink:href="#15" y="23.881"/><text y="29.893" class="f">k</text><text x="2.004" y="29.893" class="f">byeee</text></svg><svg x="8851"><use xlink:href="#a"/><use xlink:href="#b" x="7.996" y="28.198"/><use xlink:href="#1"/><use xlink:href="#6" y="2.171"/><use xlink:href="#7" y="4.342"/><use xlink:href="#8" y="6.513"/><use xlink:href="#9" y="8.684"/><use xlink:href="#10" y="10.855"/><use xlink:href="#11" y="15.197"/><use xlink:href="#12" y="17.368"/><use xlink:href="#14" y="21.71"/><use xlink:href="#15" y="23.881"/><text y="29.893" class="f">k</text><text x="2.004" y="29.893" class="f">byeeee</text></svg><svg x="9018"><use xlink:href="#a"/><use xlink:href="#b" x="8.996" y="28.198"/><use xlink:href="#1"/><use xlink:href="#6" y="2.171"/><use xlink:href="#7" y="4.342"/><use xlink:href="#8" y="6.513"/><use xlink:href="#9" y="8.684"/><use xlink:href="#10" y="10.855"/><use xlink:href="#11" y="15.197"/><use xlink:href="#12" y="17.368"/><use xlink:href="#14" y="21.71"/><use xlink:href="#15" y="23.881"/><text y="29.893" class="f">k</text><text x="2.004" y="29.893" class="f">byeeeee</text></svg><svg x="9185"><use xlink:href="#a"/><use xlink:href="#b" x="9.996" y="28.198"/><use xlink:href="#1"/><use xlink:href="#6" y="2.171"/><use xlink:href="#7" y="4.342"/><use xlink:href="#8" y="6.513"/><use xlink:href="#9" y="8.684"/><use xlink:href="#10" y="10.855"/><use xlink:href="#11" y="15.197"/><use xlink:href="#12" y="17.368"/><use xlink:href="#14" y="21.71"/><use xlink:href="#15" y="23.881"/><use xlink:href="#17" y="28.223"/></svg><svg x="9352"><use xlink:href="#a"/><use xlink:href="#b" x="-.004" y="30.369"/><use xlink:href="#1"/><use xlink:href="#6" y="2.171"/><use xlink:href="#7" y="4.342"/><use xlink:href="#8" y="6.513"/><use xlink:href="#9" y="8.684"/><use xlink:href="#10" y="10.855"/><use xlink:href="#11" y="15.197"/><use xlink:href="#12" y="17.368"/><use xlink:href="#14" y="21.71"/><use xlink:href="#15" y="23.881"/><use xlink:href="#17" y="28.223"/></svg><svg x="9519"><use xlink:href="#a"/><use xlink:href="#b" x=".996" y="30.369"/><use xlink:href="#1"/><use xlink:href="#6" y="2.171"/><use xlink:href="#7" y="4.342"/><use xlink:href="#8" y="6.513"/><use xlink:href="#9" y="8.684"/><use xlink:href="#10" y="10.855"/><use xlink:href="#11" y="15.197"/><use xlink:href="#12" y="17.368"/><use xlink:href="#14" y="21.71"/><use xlink:href="#15" y="23.881"/><use xlink:href="#17" y="28.223"/><text y="32.064" class="f">ç</text></svg><svg x="9686"><use xlink:href="#a"/><use xlink:href="#b" x="-.004" y="30.369"/><use xlink:href="#1"/><use xlink:href="#6" y="2.171"/><use xlink:href="#7" y="4.342"/><use xlink:href="#8" y="6.513"/><use xlink:href="#9" y="8.684"/><use xlink:href="#10" y="10.855"/><use xlink:href="#11" y="15.197"/><use xlink:href="#12" y="17.368"/><use xlink:href="#14" y="21.71"/><use xlink:href="#15" y="23.881"/><use xlink:href="#17" y="28.223"/></svg><svg x="9853"><use xlink:href="#a"/><use xlink:href="#b" x="1.996" y="30.369"/><use xlink:href="#1"/><use xlink:href="#6" y="2.171"/><use xlink:href="#7" y="4.342"/><use xlink:href="#8" y="6.513"/><use xlink:href="#9" y="8.684"/><use xlink:href="#10" y="10.855"/><use xlink:href="#11" y="15.197"/><use xlink:href="#12" y="17.368"/><use xlink:href="#14" y="21.71"/><use xlink:href="#15" y="23.881"/><use xlink:href="#17" y="28.223"/><use xlink:href="#18" y="30.394"/></svg><svg x="10020"><use xlink:href="#a"/><use xlink:href="#b" x="1.996" y="30.369"/><use xlink:href="#1"/><use xlink:href="#6" y="2.171"/><use xlink:href="#7" y="4.342"/><use xlink:href="#8" y="6.513"/><use xlink:href="#9" y="8.684"/><use xlink:href="#10" y="10.855"/><use xlink:href="#11" y="15.197"/><use xlink:href="#12" y="17.368"/><use xlink:href="#14" y="21.71"/><use xlink:href="#15" y="23.881"/><use xlink:href="#17" y="28.223"/><use xlink:href="#18" y="30.394"/></svg><svg x="10187"><use xlink:href="#a"/><use xlink:href="#b" x="-.004" y="32.54"/><use xlink:href="#1"/><use xlink:href="#6" y="2.171"/><use xlink:href="#7" y="4.342"/><use xlink:href="#8" y="6.513"/><use xlink:href="#9" y="8.684"/><use xlink:href="#10" y="10.855"/><use xlink:href="#11" y="15.197"/><use xlink:href="#12" y="17.368"/><use xlink:href="#14" y="21.71"/><use xlink:href="#15" y="23.881"/><use xlink:href="#17" y="28.223"/><use xlink:href="#19" y="30.394"/></svg><svg x="10354"><use xlink:href="#a"/><use xlink:href="#b" x="-.004" y="32.54"/><use xlink:href="#1"/><use xlink:href="#6" y="2.171"/><use xlink:href="#7" y="4.342"/><use xlink:href="#8" y="6.513"/><use xlink:href="#9" y="8.684"/><use xlink:href="#10" y="10.855"/><use xlink:href="#11" y="15.197"/><use xlink:href="#12" y="17.368"/><use xlink:href="#14" y="21.71"/><use xlink:href="#15" y="23.881"/><use xlink:href="#17" y="28.223"/><use xlink:href="#19" y="30.394"/></svg><svg x="10521"><use xlink:href="#a"/><use xlink:href="#b" x="27.996" y="32.54"/><use xlink:href="#1"/><use xlink:href="#6" y="2.171"/><use xlink:href="#7" y="4.342"/><use xlink:href="#8" y="6.513"/><use xlink:href="#9" y="8.684"/><use xlink:href="#10" y="10.855"/><use xlink:href="#11" y="15.197"/><use xlink:href="#12" y="17.368"/><use xlink:href="#14" y="21.71"/><use xlink:href="#15" y="23.881"/><use xlink:href="#17" y="28.223"/><use xlink:href="#19" y="30.394"/><use xlink:href="#20" y="32.565"/></svg><svg x="10688"><use xlink:href="#a"/><use xlink:href="#b" x="27.996" y="32.54"/><use xlink:href="#1"/><use xlink:href="#6" y="2.171"/><use xlink:href="#7" y="4.342"/><use xlink:href="#8" y="6.513"/><use xlink:href="#9" y="8.684"/><use xlink:href="#10" y="10.855"/><use xlink:href="#11" y="15.197"/><use xlink:href="#12" y="17.368"/><use xlink:href="#14" y="21.71"/><use xlink:href="#15" y="23.881"/><use xlink:href="#17" y="28.223"/><use xlink:href="#19" y="30.394"/><use xlink:href="#20" y="32.565"/></svg><svg x="10855"><use xlink:href="#a"/><use xlink:href="#b" x="27.996" y="32.54"/><use xlink:href="#1"/><use xlink:href="#6" y="2.171"/><use xlink:href="#7" y="4.342"/><use xlink:href="#8" y="6.513"/><use xlink:href="#9" y="8.684"/><use xlink:href="#10" y="10.855"/><use xlink:href="#11" y="15.197"/><use xlink:href="#12" y="17.368"/><use xlink:href="#14" y="21.71"/><use xlink:href="#15" y="23.881"/><use xlink:href="#17" y="28.223"/><use xlink:href="#19" y="30.394"/><use xlink:href="#20" y="32.565"/></svg><svg x="11022"><use xlink:href="#a"/><use xlink:href="#b" x="-.004" y="34.711"/><use xlink:href="#1"/><use xlink:href="#6" y="2.171"/><use xlink:href="#7" y="4.342"/><use xlink:href="#8" y="6.513"/><use xlink:href="#9" y="8.684"/><use xlink:href="#10" y="10.855"/><use xlink:href="#11" y="15.197"/><use xlink:href="#12" y="17.368"/><use xlink:href="#14" y="21.71"/><use xlink:href="#15" y="23.881"/><use xlink:href="#17" y="28.223"/><use xlink:href="#19" y="30.394"/><use xlink:href="#20" y="32.565"/></svg></svg></g></g></svg></svg>