<svg xmlns="http://www.w3.org/2000/svg" xmlns:xlink="http://www.w3.org/1999/xlink" width="1710" height="537.62"><rect width="1710" height="537.62" rx="5" ry="5" class="a"/><svg y="0%" x="0%"><circle cx="20" cy="20" r="6" fill="#ff5f58"/><circle cx="40" cy="20" r="6" fill="#ffbd2e"/><circle cx="60" cy="20" r="6" fill="#18c132"/></svg><svg height="477.62" viewBox="0 0 167 47.762" width="1670" x="15" xmlns="http://www.w3.org/2000/svg" xmlns:xlink="http://www.w3.org/1999/xlink" y="50"><style>@keyframes o{0%{transform:translateX(0)}2.57%{transform:translateX(-167px)}2.65%{transform:translateX(-501px)}2.93%{transform:translateX(-835px)}2.94%{transform:translateX(-1002px)}10.38%{transform:translateX(-1169px)}10.56%{transform:translateX(-1336px)}10.8%{transform:translateX(-1503px)}11.17%{transform:translateX(-1670px)}11.78%{transform:translateX(-1837px)}14.3%{transform:translateX(-2004px)}14.91%{transform:translateX(-2171px)}15.32%{transform:translateX(-2338px)}15.54%{transform:translateX(-2505px)}16.08%{transform:translateX(-2672px)}16.44%{transform:translateX(-2839px)}17.55%{transform:translateX(-3006px)}18.35%{transform:translateX(-3173px)}18.36%{transform:translateX(-3340px)}18.37%{transform:translateX(-3507px)}21.93%{transform:translateX(-4008px)}29.37%{transform:translateX(-4509px)}36.81%{transform:translateX(-4843px)}44.25%{transform:translateX(-5010px)}44.26%{transform:translateX(-5177px)}47.57%{transform:translateX(-5344px)}47.75%{transform:translateX(-5511px)}50.47%{transform:translateX(-5678px)}50.84%{transform:translateX(-5845px)}51.4%{transform:translateX(-6012px)}51.43%{transform:translateX(-6179px)}52.15%{transform:translateX(-6346px)}52.45%{transform:translateX(-6513px)}52.94%{transform:translateX(-6680px)}53.25%{transform:translateX(-6847px)}54.1%{transform:translateX(-7014px)}56.36%{transform:translateX(-7181px)}63.8%{transform:translateX(-7515px)}71.24%{transform:translateX(-7682px)}72.24%{transform:translateX(-7849px)}72.57%{transform:translateX(-8016px)}72.91%{transform:translateX(-8183px)}74.11%{transform:translateX(-8350px)}81.55%{transform:translateX(-8517px)}83.13%{transform:translateX(-8684px)}83.48%{transform:translateX(-8851px)}83.66%{transform:translateX(-9018px)}84.21%{transform:translateX(-9185px)}85.74%{transform:translateX(-9352px)}86.48%{transform:translateX(-9519px)}86.68%{transform:translateX(-9686px)}86.85%{transform:translateX(-9853px)}87.28%{transform:translateX(-10020px)}90.9%{transform:translateX(-10354px)}91.01%{transform:translateX(-10688px)}91.02%{transform:translateX(-11189px)}92.34%{transform:translateX(-11523px)}92.55%{transform:translateX(-11690px)}92.56%{transform:translateX(-12024px)}to{transform:translateX(-12191px)}}.a{fill:#282d35}.f,.g{fill:#b9c0cb;white-space:pre}.g{fill:#a8cc8c}.g,.h,.i{font-weight:700}.h{fill:#66c2cd;white-space:pre}.i{fill:#71bef2}.i,.j,.k,.l,.q{white-space:pre}.j{fill:#e88388;font-weight:700}.k,.l,.q{fill:#a8cc8c}.l,.q{fill:#6f7783}.q{fill:#b9c0cb;text-decoration:underline}</style><g font-family="Monaco,Consolas,Menlo,'Bitstream Vera Sans Mono','Powerline Symbols',monospace" font-size="1.67"><defs><symbol id="15"><text y="1.67" class="f">w</text></symbol><symbol id="1"><text y="1.67" class="f">pyenv:</text><text x="7.014" y="1.67" class="f">no</text><text x="10.02" y="1.67" class="f">such</text><text x="15.03" y="1.67" class="f">command</text><text x="23.046" y="1.67" class="f">`virtualenv-init&apos;</text></symbol><symbol id="3"><text y="1.67" class="g">➜</text><text x="3.006" y="1.67" class="h">Java-Netcat</text><text x="15.03" y="1.67" class="i">git:(</text><text x="20.04" y="1.67" class="j">master</text><text x="26.052" y="1.67" class="i">)</text><text x="28.056" y="1.67" class="k">./gradlew</text><text x="38.076" y="1.67" class="l">client</text><text x="45.09" y="1.67" class="l">--console=plain</text></symbol><symbol id="4"><text y="1.67" class="g">➜</text><text x="3.006" y="1.67" class="h">Java-Netcat</text><text x="15.03" y="1.67" class="i">git:(</text><text x="20.04" y="1.67" class="j">master</text><text x="26.052" y="1.67" class="i">)</text><text x="28.056" y="1.67" class="k">./gradlew</text><text x="38.076" y="1.67" class="f">server</text><text x="45.09" y="1.67" class="f">--console=plain</text></symbol><symbol id="5"><text y="1.67" class="f">&gt;</text><text x="2.004" y="1.67" class="f">Task</text><text x="7.014" y="1.67" class="f">:compileJava</text><text x="20.04" y="1.67" class="f">UP-TO-DATE</text></symbol><symbol id="6"><text y="1.67" class="f">&gt;</text><text x="2.004" y="1.67" class="f">Task</text><text x="7.014" y="1.67" class="f">:processResources</text><text x="25.05" y="1.67" class="f">NO-SOURCE</text></symbol><symbol id="7"><text y="1.67" class="f">&gt;</text><text x="2.004" y="1.67" class="f">Task</text><text x="7.014" y="1.67" class="f">:classes</text><text x="16.032" y="1.67" class="f">UP-TO-DATE</text></symbol><symbol id="8"><text y="1.67" class="f">&gt;</text><text x="2.004" y="1.67" class="f">Task</text><text x="7.014" y="1.67" class="f">:server</text></symbol><symbol id="9"><text x="1.002" y="1.67" class="f">[</text><text x="3.006" y="1.67" class="f">Address:</text><text x="12.024" y="1.67" class="f">localhost/127.0.0.1,</text><text x="33.066" y="1.67" class="f">Port:</text><text x="39.078" y="1.67" class="f">8080</text><text x="44.088" y="1.67" class="f">]</text><text x="46.092" y="1.67" class="f">started</text><text x="54.108" y="1.67" class="f">listening</text><text x="64.128" y="1.67" class="f">for</text><text x="68.136" y="1.67" class="f">a</text><text x="70.14" y="1.67" class="f">connection</text><text x="81.162" y="1.67" class="f">on</text><text x="84.168" y="1.67" class="f">port</text><text x="89.178" y="1.67" class="f">8080...</text></symbol><symbol id="10"><text y="1.67" class="f">***</text><text x="4.008" y="1.67" class="f">You</text><text x="8.016" y="1.67" class="f">are</text><text x="12.024" y="1.67" class="f">now</text><text x="16.032" y="1.67" class="f">connected</text><text x="26.052" y="1.67" class="f">to</text><text x="29.058" y="1.67" class="f">NetCat</text><text x="36.072" y="1.67" class="f">1.0</text><text x="40.08" y="1.67" class="f">***</text></symbol><symbol id="11"><text y="1.67" class="f">hello</text><text x="6.012" y="1.67" class="f">server!</text></symbol><symbol id="12"><text y="1.67" class="f">hey</text></symbol><symbol id="13"><text y="1.67" class="f">hey</text><text x="4.008" y="1.67" class="f">client!</text></symbol><symbol id="14"><text y="1.67" class="f">k</text><text x="2.004" y="1.67" class="f">byeeeeee</text></symbol><symbol id="2"><text y="1.67" class="g">➜</text><text x="3.006" y="1.67" class="h">Java-Netcat</text><text x="15.03" y="1.67" class="i">git:(</text><text x="20.04" y="1.67" class="j">master</text><text x="26.052" y="1.67" class="i">)</text></symbol><symbol id="16"><text y="1.67" class="f">wh</text></symbol><symbol id="17"><text y="1.67" class="f">what</text></symbol><symbol id="18"><text y="1.67" class="f">why</text></symbol><symbol id="19"><text y="1.67" class="f">why</text><text x="4.008" y="1.67" class="f">tho</text></symbol><symbol id="20"><text y="1.67" class="f">Stream</text><text x="7.014" y="1.67" class="f">closed</text></symbol><symbol id="21"><text y="1.67" class="f">Broken</text><text x="7.014" y="1.67" class="f">pipe</text><text x="12.024" y="1.67" class="f">(Write</text><text x="19.038" y="1.67" class="f">failed)</text></symbol><symbol id="22"><text y="1.67" class="f">Deprecated</text><text x="11.022" y="1.67" class="f">Gradle</text><text x="18.036" y="1.67" class="f">features</text><text x="27.054" y="1.67" class="f">were</text><text x="32.064" y="1.67" class="f">used</text><text x="37.074" y="1.67" class="f">in</text><text x="40.08" y="1.67" class="f">this</text><text x="45.09" y="1.67" class="f">build,</text><text x="52.104" y="1.67" class="f">making</text><text x="59.118" y="1.67" class="f">it</text><text x="62.124" y="1.67" class="f">incompatible</text><text x="75.15" y="1.67" class="f">with</text><text x="80.16" y="1.67" class="f">Gradle</text><text x="87.174" y="1.67" class="f">7.0.</text></symbol><symbol id="23"><text y="1.67" class="f">Use</text><text x="4.008" y="1.67" class="f">&apos;--warning-mode</text><text x="20.04" y="1.67" class="f">all&apos;</text><text x="25.05" y="1.67" class="f">to</text><text x="28.056" y="1.67" class="f">show</text><text x="33.066" y="1.67" class="f">the</text><text x="37.074" y="1.67" class="f">individual</text><text x="48.096" y="1.67" class="f">deprecation</text><text x="60.12" y="1.67" class="f">warnings.</text></symbol><symbol id="24"><text y="1.67" class="f">See</text><text x="4.008" y="1.67" class="f">https://docs.gradle.org/6.6.1/userguide/command_line_interface.html#sec:command_line_warnings</text></symbol><symbol id="25"><text y="1.67" class="f">BUILD</text><text x="6.012" y="1.67" class="f">SUCCESSFUL</text><text x="17.034" y="1.67" class="f">in</text><text x="20.04" y="1.67" class="f">38s</text></symbol><symbol id="26"><text y="1.67" class="f">2</text><text x="2.004" y="1.67" class="f">actionable</text><text x="13.026" y="1.67" class="f">tasks:</text><text x="20.04" y="1.67" class="f">1</text><text x="22.044" y="1.67" class="f">executed,</text><text x="32.064" y="1.67" class="f">1</text><text x="34.068" y="1.67" class="f">up-to-date</text></symbol><symbol id="a"><path fill="transparent" d="M0 0h167v22H0z"/></symbol><symbol id="b"><path fill="#6f7683" d="M0 0h1.102v2.171H0z"/></symbol></defs><path class="a" d="M0 0h167v47.762H0z"/><g style="animation-duration:26.875046s;animation-iteration-count:infinite;animation-name:o;animation-timing-function:steps(1,end)"><svg width="12358"><svg><use xlink:href="#a"/><use xlink:href="#b" x="-.004"/></svg><svg x="167"><use xlink:href="#a"/><use xlink:href="#b" x="-.004" y="2.146"/><use xlink:href="#1"/></svg><svg x="334"><use xlink:href="#a"/><use xlink:href="#b" x="-.004" y="2.146"/><use xlink:href="#1"/></svg><svg x="501"><use xlink:href="#a"/><use xlink:href="#b" x="-.004" y="2.146"/><use xlink:href="#1"/></svg><svg x="668"><use xlink:href="#a"/><use xlink:href="#b" x="27.996" y="2.146"/><use xlink:href="#1"/><use xlink:href="#2" y="2.171"/></svg><svg x="835"><use xlink:href="#a"/><use xlink:href="#b" x="27.996" y="2.146"/><use xlink:href="#1"/><use xlink:href="#2" y="2.171"/></svg><svg x="1002"><use xlink:href="#a"/><use xlink:href="#b" x="27.996" y="2.146"/><use xlink:href="#1"/><use xlink:href="#2" y="2.171"/></svg><svg x="1169"><use xlink:href="#a"/><use xlink:href="#b" x="28.996" y="2.146"/><use xlink:href="#1"/><text y="3.841" class="g">➜</text><text x="3.006" y="3.841" class="h">Java-Netcat</text><text x="15.03" y="3.841" class="i">git:(</text><text x="20.04" y="3.841" class="j">master</text><text x="26.052" y="3.841" class="i">)</text><text x="28.056" y="3.841" class="k">.</text><text x="29.058" y="3.841" class="l">/gradlew</text><text x="38.076" y="3.841" class="l">client</text><text x="45.09" y="3.841" class="l">--console=plain</text></svg><svg x="1336"><use xlink:href="#a"/><use xlink:href="#b" x="29.996" y="2.146"/><use xlink:href="#1"/><text y="3.841" class="g">➜</text><text x="3.006" y="3.841" class="h">Java-Netcat</text><text x="15.03" y="3.841" class="i">git:(</text><text x="20.04" y="3.841" class="j">master</text><text x="26.052" y="3.841" class="i">)</text><text x="28.056" y="3.841" class="q">./</text><text x="30.06" y="3.841" class="l">gradlew</text><text x="38.076" y="3.841" class="l">client</text><text x="45.09" y="3.841" class="l">--console=plain</text></svg><svg x="1503"><use xlink:href="#a"/><use xlink:href="#b" x="30.996" y="2.146"/><use xlink:href="#1"/><text y="3.841" class="g">➜</text><text x="3.006" y="3.841" class="h">Java-Netcat</text><text x="15.03" y="3.841" class="i">git:(</text><text x="20.04" y="3.841" class="j">master</text><text x="26.052" y="3.841" class="i">)</text><text x="28.056" y="3.841" class="q">./g</text><text x="31.062" y="3.841" class="l">radlew</text><text x="38.076" y="3.841" class="l">client</text><text x="45.09" y="3.841" class="l">--console=plain</text></svg><svg x="1670"><use xlink:href="#a"/><use xlink:href="#b" x="31.996" y="2.146"/><use xlink:href="#1"/><text y="3.841" class="g">➜</text><text x="3.006" y="3.841" class="h">Java-Netcat</text><text x="15.03" y="3.841" class="i">git:(</text><text x="20.04" y="3.841" class="j">master</text><text x="26.052" y="3.841" class="i">)</text><text x="28.056" y="3.841" class="q">./gr</text><text x="32.064" y="3.841" class="l">adlew</text><text x="38.076" y="3.841" class="l">client</text><text x="45.09" y="3.841" class="l">--console=plain</text></svg><svg x="1837"><use xlink:href="#a"/><use xlink:href="#b" x="32.996" y="2.146"/><use xlink:href="#1"/><text y="3.841" class="g">➜</text><text x="3.006" y="3.841" class="h">Java-Netcat</text><text x="15.03" y="3.841" class="i">git:(</text><text x="20.04" y="3.841" class="j">master</text><text x="26.052" y="3.841" class="i">)</text><text x="28.056" y="3.841" class="q">./gra</text><text x="33.066" y="3.841" class="l">dlew</text><text x="38.076" y="3.841" class="l">client</text><text x="45.09" y="3.841" class="l">--console=plain</text></svg><svg x="2004"><use xlink:href="#a"/><use xlink:href="#b" x="33.996" y="2.146"/><use xlink:href="#1"/><text y="3.841" class="g">➜</text><text x="3.006" y="3.841" class="h">Java-Netcat</text><text x="15.03" y="3.841" class="i">git:(</text><text x="20.04" y="3.841" class="j">master</text><text x="26.052" y="3.841" class="i">)</text><text x="28.056" y="3.841" class="q">./grad</text><text x="34.068" y="3.841" class="l">lew</text><text x="38.076" y="3.841" class="l">client</text><text x="45.09" y="3.841" class="l">--console=plain</text></svg><svg x="2171"><use xlink:href="#a"/><use xlink:href="#b" x="34.996" y="2.146"/><use xlink:href="#1"/><text y="3.841" class="g">➜</text><text x="3.006" y="3.841" class="h">Java-Netcat</text><text x="15.03" y="3.841" class="i">git:(</text><text x="20.04" y="3.841" class="j">master</text><text x="26.052" y="3.841" class="i">)</text><text x="28.056" y="3.841" class="q">./gradl</text><text x="35.07" y="3.841" class="l">ew</text><text x="38.076" y="3.841" class="l">client</text><text x="45.09" y="3.841" class="l">--console=plain</text></svg><svg x="2338"><use xlink:href="#a"/><use xlink:href="#b" x="35.996" y="2.146"/><use xlink:href="#1"/><text y="3.841" class="g">➜</text><text x="3.006" y="3.841" class="h">Java-Netcat</text><text x="15.03" y="3.841" class="i">git:(</text><text x="20.04" y="3.841" class="j">master</text><text x="26.052" y="3.841" class="i">)</text><text x="28.056" y="3.841" class="q">./gradle</text><text x="36.072" y="3.841" class="l">w</text><text x="38.076" y="3.841" class="l">client</text><text x="45.09" y="3.841" class="l">--console=plain</text></svg><svg x="2505"><use xlink:href="#a"/><use xlink:href="#b" x="36.996" y="2.146"/><use xlink:href="#1"/><use xlink:href="#3" y="2.171"/></svg><svg x="2672"><use xlink:href="#a"/><use xlink:href="#b" x="37.996" y="2.146"/><use xlink:href="#1"/><use xlink:href="#3" y="2.171"/></svg><svg x="2839"><use xlink:href="#a"/><use xlink:href="#b" x="38.996" y="2.146"/><use xlink:href="#1"/><text y="3.841" class="g">➜</text><text x="3.006" y="3.841" class="h">Java-Netcat</text><text x="15.03" y="3.841" class="i">git:(</text><text x="20.04" y="3.841" class="j">master</text><text x="26.052" y="3.841" class="i">)</text><text x="28.056" y="3.841" class="k">./gradlew</text><text x="38.076" y="3.841" class="q">s</text><text x="39.078" y="3.841" class="l">erver</text><text x="45.09" y="3.841" class="l">--console=plain</text></svg><svg x="3006"><use xlink:href="#a"/><use xlink:href="#b" x="59.996" y="2.146"/><use xlink:href="#1"/><use xlink:href="#4" y="2.171"/></svg><svg x="3173"><use xlink:href="#a"/><use xlink:href="#b" x="59.996" y="2.146"/><use xlink:href="#1"/><use xlink:href="#4" y="2.171"/></svg><svg x="3340"><use xlink:href="#a"/><use xlink:href="#b" x="-.004" y="4.317"/><use xlink:href="#1"/><use xlink:href="#4" y="2.171"/></svg><svg x="3507"><use xlink:href="#a"/><use xlink:href="#b" x="-.004" y="4.317"/><use xlink:href="#1"/><use xlink:href="#4" y="2.171"/></svg><svg x="3674"><use xlink:href="#a"/><use xlink:href="#b" x="-.004" y="6.488"/><use xlink:href="#1"/><use xlink:href="#4" y="2.171"/><use xlink:href="#5" y="4.342"/></svg><svg x="3841"><use xlink:href="#a"/><use xlink:href="#b" x="-.004" y="8.659"/><use xlink:href="#1"/><use xlink:href="#4" y="2.171"/><use xlink:href="#5" y="4.342"/><use xlink:href="#6" y="6.513"/></svg><svg x="4008"><use xlink:href="#a"/><use xlink:href="#b" x="-.004" y="10.83"/><use xlink:href="#1"/><use xlink:href="#4" y="2.171"/><use xlink:href="#5" y="4.342"/><use xlink:href="#6" y="6.513"/><use xlink:href="#7" y="8.684"/></svg><svg x="4175"><use xlink:href="#a"/><use xlink:href="#b" x="13.996" y="13.001"/><use xlink:href="#1"/><use xlink:href="#4" y="2.171"/><use xlink:href="#5" y="4.342"/><use xlink:href="#6" y="6.513"/><use xlink:href="#7" y="8.684"/><use xlink:href="#8" y="13.026"/></svg><svg x="4342"><use xlink:href="#a"/><use xlink:href="#b" x="-.004" y="15.172"/><use xlink:href="#1"/><use xlink:href="#4" y="2.171"/><use xlink:href="#5" y="4.342"/><use xlink:href="#6" y="6.513"/><use xlink:href="#7" y="8.684"/><use xlink:href="#8" y="13.026"/></svg><svg x="4509"><use xlink:href="#a"/><use xlink:href="#b" x="-.004" y="17.343"/><use xlink:href="#1"/><use xlink:href="#4" y="2.171"/><use xlink:href="#5" y="4.342"/><use xlink:href="#6" y="6.513"/><use xlink:href="#7" y="8.684"/><use xlink:href="#8" y="13.026"/><use xlink:href="#9" y="15.197"/></svg><svg x="4676"><use xlink:href="#a"/><use xlink:href="#b" x="-.004" y="19.514"/><use xlink:href="#1"/><use xlink:href="#4" y="2.171"/><use xlink:href="#5" y="4.342"/><use xlink:href="#6" y="6.513"/><use xlink:href="#7" y="8.684"/><use xlink:href="#8" y="13.026"/><use xlink:href="#9" y="15.197"/><use xlink:href="#10" y="17.368"/></svg><svg x="4843"><use xlink:href="#a"/><use xlink:href="#b" x="-.004" y="21.685"/><use xlink:href="#1"/><use xlink:href="#4" y="2.171"/><use xlink:href="#5" y="4.342"/><use xlink:href="#6" y="6.513"/><use xlink:href="#7" y="8.684"/><use xlink:href="#8" y="13.026"/><use xlink:href="#9" y="15.197"/><use xlink:href="#10" y="17.368"/></svg><svg x="5010"><use xlink:href="#a"/><use xlink:href="#b" x="-.004" y="23.856"/><use xlink:href="#1"/><use xlink:href="#4" y="2.171"/><use xlink:href="#5" y="4.342"/><use xlink:href="#6" y="6.513"/><use xlink:href="#7" y="8.684"/><use xlink:href="#8" y="13.026"/><use xlink:href="#9" y="15.197"/><use xlink:href="#10" y="17.368"/><use xlink:href="#11" y="21.71"/></svg><svg x="5177"><use xlink:href="#a"/><use xlink:href="#b" x="-.004" y="26.027"/><use xlink:href="#1"/><use xlink:href="#4" y="2.171"/><use xlink:href="#5" y="4.342"/><use xlink:href="#6" y="6.513"/><use xlink:href="#7" y="8.684"/><use xlink:href="#8" y="13.026"/><use xlink:href="#9" y="15.197"/><use xlink:href="#10" y="17.368"/><use xlink:href="#11" y="21.71"/></svg><svg x="5344"><use xlink:href="#a"/><use xlink:href="#b" x=".996" y="26.027"/><use xlink:href="#1"/><use xlink:href="#4" y="2.171"/><use xlink:href="#5" y="4.342"/><use xlink:href="#6" y="6.513"/><use xlink:href="#7" y="8.684"/><use xlink:href="#8" y="13.026"/><use xlink:href="#9" y="15.197"/><use xlink:href="#10" y="17.368"/><use xlink:href="#11" y="21.71"/><text y="27.722" class="f">h</text></svg><svg x="5511"><use xlink:href="#a"/><use xlink:href="#b" x="1.996" y="26.027"/><use xlink:href="#1"/><use xlink:href="#4" y="2.171"/><use xlink:href="#5" y="4.342"/><use xlink:href="#6" y="6.513"/><use xlink:href="#7" y="8.684"/><use xlink:href="#8" y="13.026"/><use xlink:href="#9" y="15.197"/><use xlink:href="#10" y="17.368"/><use xlink:href="#11" y="21.71"/><text y="27.722" class="f">he</text></svg><svg x="5678"><use xlink:href="#a"/><use xlink:href="#b" x="2.996" y="26.027"/><use xlink:href="#1"/><use xlink:href="#4" y="2.171"/><use xlink:href="#5" y="4.342"/><use xlink:href="#6" y="6.513"/><use xlink:href="#7" y="8.684"/><use xlink:href="#8" y="13.026"/><use xlink:href="#9" y="15.197"/><use xlink:href="#10" y="17.368"/><use xlink:href="#11" y="21.71"/><use xlink:href="#12" y="26.052"/></svg><svg x="5845"><use xlink:href="#a"/><use xlink:href="#b" x="3.996" y="26.027"/><use xlink:href="#1"/><use xlink:href="#4" y="2.171"/><use xlink:href="#5" y="4.342"/><use xlink:href="#6" y="6.513"/><use xlink:href="#7" y="8.684"/><use xlink:href="#8" y="13.026"/><use xlink:href="#9" y="15.197"/><use xlink:href="#10" y="17.368"/><use xlink:href="#11" y="21.71"/><use xlink:href="#12" y="26.052"/></svg><svg x="6012"><use xlink:href="#a"/><use xlink:href="#b" x="4.996" y="26.027"/><use xlink:href="#1"/><use xlink:href="#4" y="2.171"/><use xlink:href="#5" y="4.342"/><use xlink:href="#6" y="6.513"/><use xlink:href="#7" y="8.684"/><use xlink:href="#8" y="13.026"/><use xlink:href="#9" y="15.197"/><use xlink:href="#10" y="17.368"/><use xlink:href="#11" y="21.71"/><text y="27.722" class="f">hey</text><text x="4.008" y="27.722" class="f">c</text></svg><svg x="6179"><use xlink:href="#a"/><use xlink:href="#b" x="5.996" y="26.027"/><use xlink:href="#1"/><use xlink:href="#4" y="2.171"/><use xlink:href="#5" y="4.342"/><use xlink:href="#6" y="6.513"/><use xlink:href="#7" y="8.684"/><use xlink:href="#8" y="13.026"/><use xlink:href="#9" y="15.197"/><use xlink:href="#10" y="17.368"/><use xlink:href="#11" y="21.71"/><text y="27.722" class="f">hey</text><text x="4.008" y="27.722" class="f">cl</text></svg><svg x="6346"><use xlink:href="#a"/><use xlink:href="#b" x="6.996" y="26.027"/><use xlink:href="#1"/><use xlink:href="#4" y="2.171"/><use xlink:href="#5" y="4.342"/><use xlink:href="#6" y="6.513"/><use xlink:href="#7" y="8.684"/><use xlink:href="#8" y="13.026"/><use xlink:href="#9" y="15.197"/><use xlink:href="#10" y="17.368"/><use xlink:href="#11" y="21.71"/><text y="27.722" class="f">hey</text><text x="4.008" y="27.722" class="f">cli</text></svg><svg x="6513"><use xlink:href="#a"/><use xlink:href="#b" x="7.996" y="26.027"/><use xlink:href="#1"/><use xlink:href="#4" y="2.171"/><use xlink:href="#5" y="4.342"/><use xlink:href="#6" y="6.513"/><use xlink:href="#7" y="8.684"/><use xlink:href="#8" y="13.026"/><use xlink:href="#9" y="15.197"/><use xlink:href="#10" y="17.368"/><use xlink:href="#11" y="21.71"/><text y="27.722" class="f">hey</text><text x="4.008" y="27.722" class="f">clie</text></svg><svg x="6680"><use xlink:href="#a"/><use xlink:href="#b" x="8.996" y="26.027"/><use xlink:href="#1"/><use xlink:href="#4" y="2.171"/><use xlink:href="#5" y="4.342"/><use xlink:href="#6" y="6.513"/><use xlink:href="#7" y="8.684"/><use xlink:href="#8" y="13.026"/><use xlink:href="#9" y="15.197"/><use xlink:href="#10" y="17.368"/><use xlink:href="#11" y="21.71"/><text y="27.722" class="f">hey</text><text x="4.008" y="27.722" class="f">clien</text></svg><svg x="6847"><use xlink:href="#a"/><use xlink:href="#b" x="9.996" y="26.027"/><use xlink:href="#1"/><use xlink:href="#4" y="2.171"/><use xlink:href="#5" y="4.342"/><use xlink:href="#6" y="6.513"/><use xlink:href="#7" y="8.684"/><use xlink:href="#8" y="13.026"/><use xlink:href="#9" y="15.197"/><use xlink:href="#10" y="17.368"/><use xlink:href="#11" y="21.71"/><text y="27.722" class="f">hey</text><text x="4.008" y="27.722" class="f">client</text></svg><svg x="7014"><use xlink:href="#a"/><use xlink:href="#b" x="10.996" y="26.027"/><use xlink:href="#1"/><use xlink:href="#4" y="2.171"/><use xlink:href="#5" y="4.342"/><use xlink:href="#6" y="6.513"/><use xlink:href="#7" y="8.684"/><use xlink:href="#8" y="13.026"/><use xlink:href="#9" y="15.197"/><use xlink:href="#10" y="17.368"/><use xlink:href="#11" y="21.71"/><use xlink:href="#13" y="26.052"/></svg><svg x="7181"><use xlink:href="#a"/><use xlink:href="#b" x="-.004" y="28.198"/><use xlink:href="#1"/><use xlink:href="#4" y="2.171"/><use xlink:href="#5" y="4.342"/><use xlink:href="#6" y="6.513"/><use xlink:href="#7" y="8.684"/><use xlink:href="#8" y="13.026"/><use xlink:href="#9" y="15.197"/><use xlink:href="#10" y="17.368"/><use xlink:href="#11" y="21.71"/><use xlink:href="#13" y="26.052"/></svg><svg x="7348"><use xlink:href="#a"/><use xlink:href="#b" x="9.996" y="28.198"/><use xlink:href="#1"/><use xlink:href="#4" y="2.171"/><use xlink:href="#5" y="4.342"/><use xlink:href="#6" y="6.513"/><use xlink:href="#7" y="8.684"/><use xlink:href="#8" y="13.026"/><use xlink:href="#9" y="15.197"/><use xlink:href="#10" y="17.368"/><use xlink:href="#11" y="21.71"/><use xlink:href="#13" y="26.052"/><use xlink:href="#14" y="28.223"/></svg><svg x="7515"><use xlink:href="#a"/><use xlink:href="#b" x="-.004" y="32.54"/><use xlink:href="#1"/><use xlink:href="#4" y="2.171"/><use xlink:href="#5" y="4.342"/><use xlink:href="#6" y="6.513"/><use xlink:href="#7" y="8.684"/><use xlink:href="#8" y="13.026"/><use xlink:href="#9" y="15.197"/><use xlink:href="#10" y="17.368"/><use xlink:href="#11" y="21.71"/><use xlink:href="#13" y="26.052"/><use xlink:href="#14" y="28.223"/></svg><svg x="7682"><use xlink:href="#a"/><use xlink:href="#b" x=".996" y="32.54"/><use xlink:href="#1"/><use xlink:href="#4" y="2.171"/><use xlink:href="#5" y="4.342"/><use xlink:href="#6" y="6.513"/><use xlink:href="#7" y="8.684"/><use xlink:href="#8" y="13.026"/><use xlink:href="#9" y="15.197"/><use xlink:href="#10" y="17.368"/><use xlink:href="#11" y="21.71"/><use xlink:href="#13" y="26.052"/><use xlink:href="#14" y="28.223"/><use xlink:href="#15" y="32.565"/></svg><svg x="7849"><use xlink:href="#a"/><use xlink:href="#b" x="1.996" y="32.54"/><use xlink:href="#1"/><use xlink:href="#4" y="2.171"/><use xlink:href="#5" y="4.342"/><use xlink:href="#6" y="6.513"/><use xlink:href="#7" y="8.684"/><use xlink:href="#8" y="13.026"/><use xlink:href="#9" y="15.197"/><use xlink:href="#10" y="17.368"/><use xlink:href="#11" y="21.71"/><use xlink:href="#13" y="26.052"/><use xlink:href="#14" y="28.223"/><use xlink:href="#16" y="32.565"/></svg><svg x="8016"><use xlink:href="#a"/><use xlink:href="#b" x="2.996" y="32.54"/><use xlink:href="#1"/><use xlink:href="#4" y="2.171"/><use xlink:href="#5" y="4.342"/><use xlink:href="#6" y="6.513"/><use xlink:href="#7" y="8.684"/><use xlink:href="#8" y="13.026"/><use xlink:href="#9" y="15.197"/><use xlink:href="#10" y="17.368"/><use xlink:href="#11" y="21.71"/><use xlink:href="#13" y="26.052"/><use xlink:href="#14" y="28.223"/><text y="34.235" class="f">wha</text></svg><svg x="8183"><use xlink:href="#a"/><use xlink:href="#b" x="3.996" y="32.54"/><use xlink:href="#1"/><use xlink:href="#4" y="2.171"/><use xlink:href="#5" y="4.342"/><use xlink:href="#6" y="6.513"/><use xlink:href="#7" y="8.684"/><use xlink:href="#8" y="13.026"/><use xlink:href="#9" y="15.197"/><use xlink:href="#10" y="17.368"/><use xlink:href="#11" y="21.71"/><use xlink:href="#13" y="26.052"/><use xlink:href="#14" y="28.223"/><use xlink:href="#17" y="32.565"/></svg><svg x="8350"><use xlink:href="#a"/><use xlink:href="#b" x="-.004" y="34.711"/><use xlink:href="#1"/><use xlink:href="#4" y="2.171"/><use xlink:href="#5" y="4.342"/><use xlink:href="#6" y="6.513"/><use xlink:href="#7" y="8.684"/><use xlink:href="#8" y="13.026"/><use xlink:href="#9" y="15.197"/><use xlink:href="#10" y="17.368"/><use xlink:href="#11" y="21.71"/><use xlink:href="#13" y="26.052"/><use xlink:href="#14" y="28.223"/><use xlink:href="#17" y="32.565"/></svg><svg x="8517"><use xlink:href="#a"/><use xlink:href="#b" x=".996" y="34.711"/><use xlink:href="#1"/><use xlink:href="#4" y="2.171"/><use xlink:href="#5" y="4.342"/><use xlink:href="#6" y="6.513"/><use xlink:href="#7" y="8.684"/><use xlink:href="#8" y="13.026"/><use xlink:href="#9" y="15.197"/><use xlink:href="#10" y="17.368"/><use xlink:href="#11" y="21.71"/><use xlink:href="#13" y="26.052"/><use xlink:href="#14" y="28.223"/><use xlink:href="#17" y="32.565"/><text y="36.406" class="f">q</text></svg><svg x="8684"><use xlink:href="#a"/><use xlink:href="#b" x="-.004" y="34.711"/><use xlink:href="#1"/><use xlink:href="#4" y="2.171"/><use xlink:href="#5" y="4.342"/><use xlink:href="#6" y="6.513"/><use xlink:href="#7" y="8.684"/><use xlink:href="#8" y="13.026"/><use xlink:href="#9" y="15.197"/><use xlink:href="#10" y="17.368"/><use xlink:href="#11" y="21.71"/><use xlink:href="#13" y="26.052"/><use xlink:href="#14" y="28.223"/><use xlink:href="#17" y="32.565"/></svg><svg x="8851"><use xlink:href="#a"/><use xlink:href="#b" x=".996" y="34.711"/><use xlink:href="#1"/><use xlink:href="#4" y="2.171"/><use xlink:href="#5" y="4.342"/><use xlink:href="#6" y="6.513"/><use xlink:href="#7" y="8.684"/><use xlink:href="#8" y="13.026"/><use xlink:href="#9" y="15.197"/><use xlink:href="#10" y="17.368"/><use xlink:href="#11" y="21.71"/><use xlink:href="#13" y="26.052"/><use xlink:href="#14" y="28.223"/><use xlink:href="#17" y="32.565"/><use xlink:href="#15" y="34.736"/></svg><svg x="9018"><use xlink:href="#a"/><use xlink:href="#b" x="1.996" y="34.711"/><use xlink:href="#1"/><use xlink:href="#4" y="2.171"/><use xlink:href="#5" y="4.342"/><use xlink:href="#6" y="6.513"/><use xlink:href="#7" y="8.684"/><use xlink:href="#8" y="13.026"/><use xlink:href="#9" y="15.197"/><use xlink:href="#10" y="17.368"/><use xlink:href="#11" y="21.71"/><use xlink:href="#13" y="26.052"/><use xlink:href="#14" y="28.223"/><use xlink:href="#17" y="32.565"/><use xlink:href="#16" y="34.736"/></svg><svg x="9185"><use xlink:href="#a"/><use xlink:href="#b" x="2.996" y="34.711"/><use xlink:href="#1"/><use xlink:href="#4" y="2.171"/><use xlink:href="#5" y="4.342"/><use xlink:href="#6" y="6.513"/><use xlink:href="#7" y="8.684"/><use xlink:href="#8" y="13.026"/><use xlink:href="#9" y="15.197"/><use xlink:href="#10" y="17.368"/><use xlink:href="#11" y="21.71"/><use xlink:href="#13" y="26.052"/><use xlink:href="#14" y="28.223"/><use xlink:href="#17" y="32.565"/><use xlink:href="#18" y="34.736"/></svg><svg x="9352"><use xlink:href="#a"/><use xlink:href="#b" x="3.996" y="34.711"/><use xlink:href="#1"/><use xlink:href="#4" y="2.171"/><use xlink:href="#5" y="4.342"/><use xlink:href="#6" y="6.513"/><use xlink:href="#7" y="8.684"/><use xlink:href="#8" y="13.026"/><use xlink:href="#9" y="15.197"/><use xlink:href="#10" y="17.368"/><use xlink:href="#11" y="21.71"/><use xlink:href="#13" y="26.052"/><use xlink:href="#14" y="28.223"/><use xlink:href="#17" y="32.565"/><use xlink:href="#18" y="34.736"/></svg><svg x="9519"><use xlink:href="#a"/><use xlink:href="#b" x="4.996" y="34.711"/><use xlink:href="#1"/><use xlink:href="#4" y="2.171"/><use xlink:href="#5" y="4.342"/><use xlink:href="#6" y="6.513"/><use xlink:href="#7" y="8.684"/><use xlink:href="#8" y="13.026"/><use xlink:href="#9" y="15.197"/><use xlink:href="#10" y="17.368"/><use xlink:href="#11" y="21.71"/><use xlink:href="#13" y="26.052"/><use xlink:href="#14" y="28.223"/><use xlink:href="#17" y="32.565"/><text y="36.406" class="f">why</text><text x="4.008" y="36.406" class="f">t</text></svg><svg x="9686"><use xlink:href="#a"/><use xlink:href="#b" x="5.996" y="34.711"/><use xlink:href="#1"/><use xlink:href="#4" y="2.171"/><use xlink:href="#5" y="4.342"/><use xlink:href="#6" y="6.513"/><use xlink:href="#7" y="8.684"/><use xlink:href="#8" y="13.026"/><use xlink:href="#9" y="15.197"/><use xlink:href="#10" y="17.368"/><use xlink:href="#11" y="21.71"/><use xlink:href="#13" y="26.052"/><use xlink:href="#14" y="28.223"/><use xlink:href="#17" y="32.565"/><text y="36.406" class="f">why</text><text x="4.008" y="36.406" class="f">th</text></svg><svg x="9853"><use xlink:href="#a"/><use xlink:href="#b" x="6.996" y="34.711"/><use xlink:href="#1"/><use xlink:href="#4" y="2.171"/><use xlink:href="#5" y="4.342"/><use xlink:href="#6" y="6.513"/><use xlink:href="#7" y="8.684"/><use xlink:href="#8" y="13.026"/><use xlink:href="#9" y="15.197"/><use xlink:href="#10" y="17.368"/><use xlink:href="#11" y="21.71"/><use xlink:href="#13" y="26.052"/><use xlink:href="#14" y="28.223"/><use xlink:href="#17" y="32.565"/><use xlink:href="#19" y="34.736"/></svg><svg x="10020"><use xlink:href="#a"/><use xlink:href="#b" x="-.004" y="36.882"/><use xlink:href="#1"/><use xlink:href="#4" y="2.171"/><use xlink:href="#5" y="4.342"/><use xlink:href="#6" y="6.513"/><use xlink:href="#7" y="8.684"/><use xlink:href="#8" y="13.026"/><use xlink:href="#9" y="15.197"/><use xlink:href="#10" y="17.368"/><use xlink:href="#11" y="21.71"/><use xlink:href="#13" y="26.052"/><use xlink:href="#14" y="28.223"/><use xlink:href="#17" y="32.565"/><use xlink:href="#19" y="34.736"/></svg><svg x="10187"><use xlink:href="#a"/><use xlink:href="#b" x="-.004" y="39.053"/><use xlink:href="#1"/><use xlink:href="#4" y="2.171"/><use xlink:href="#5" y="4.342"/><use xlink:href="#6" y="6.513"/><use xlink:href="#7" y="8.684"/><use xlink:href="#8" y="13.026"/><use xlink:href="#9" y="15.197"/><use xlink:href="#10" y="17.368"/><use xlink:href="#11" y="21.71"/><use xlink:href="#13" y="26.052"/><use xlink:href="#14" y="28.223"/><use xlink:href="#17" y="32.565"/><use xlink:href="#19" y="34.736"/><use xlink:href="#20" y="36.907"/></svg><svg x="10354"><use xlink:href="#a"/><use xlink:href="#b" x="-.004" y="41.224"/><use xlink:href="#1"/><use xlink:href="#4" y="2.171"/><use xlink:href="#5" y="4.342"/><use xlink:href="#6" y="6.513"/><use xlink:href="#7" y="8.684"/><use xlink:href="#8" y="13.026"/><use xlink:href="#9" y="15.197"/><use xlink:href="#10" y="17.368"/><use xlink:href="#11" y="21.71"/><use xlink:href="#13" y="26.052"/><use xlink:href="#14" y="28.223"/><use xlink:href="#17" y="32.565"/><use xlink:href="#19" y="34.736"/><use xlink:href="#20" y="36.907"/><use xlink:href="#21" y="39.078"/></svg><svg x="10521"><use xlink:href="#a"/><use xlink:href="#b" x="-.004" y="43.395"/><use xlink:href="#1"/><use xlink:href="#4" y="2.171"/><use xlink:href="#5" y="4.342"/><use xlink:href="#6" y="6.513"/><use xlink:href="#7" y="8.684"/><use xlink:href="#8" y="13.026"/><use xlink:href="#9" y="15.197"/><use xlink:href="#10" y="17.368"/><use xlink:href="#11" y="21.71"/><use xlink:href="#13" y="26.052"/><use xlink:href="#14" y="28.223"/><use xlink:href="#17" y="32.565"/><use xlink:href="#19" y="34.736"/><use xlink:href="#20" y="36.907"/><use xlink:href="#21" y="39.078"/></svg><svg x="10688"><use xlink:href="#a"/><use xlink:href="#b" x="-.004" y="45.566"/><use xlink:href="#1"/><use xlink:href="#4" y="2.171"/><use xlink:href="#5" y="4.342"/><use xlink:href="#6" y="6.513"/><use xlink:href="#7" y="8.684"/><use xlink:href="#8" y="13.026"/><use xlink:href="#9" y="15.197"/><use xlink:href="#10" y="17.368"/><use xlink:href="#11" y="21.71"/><use xlink:href="#13" y="26.052"/><use xlink:href="#14" y="28.223"/><use xlink:href="#17" y="32.565"/><use xlink:href="#19" y="34.736"/><use xlink:href="#20" y="36.907"/><use xlink:href="#21" y="39.078"/><use xlink:href="#22" y="43.42"/></svg><svg x="10855"><use xlink:href="#a"/><use xlink:href="#b" x="-.004" y="45.566"/><use xlink:href="#6"/><use xlink:href="#7" y="2.171"/><use xlink:href="#8" y="6.513"/><use xlink:href="#9" y="8.684"/><use xlink:href="#10" y="10.855"/><use xlink:href="#11" y="15.197"/><use xlink:href="#13" y="19.539"/><use xlink:href="#14" y="21.71"/><use xlink:href="#17" y="26.052"/><use xlink:href="#19" y="28.223"/><use xlink:href="#20" y="30.394"/><use xlink:href="#21" y="32.565"/><use xlink:href="#22" y="36.907"/><use xlink:href="#23" y="39.078"/><use xlink:href="#24" y="41.249"/></svg><svg x="11022"><use xlink:href="#a"/><use xlink:href="#b" x="-.004" y="45.566"/><use xlink:href="#8" y="2.171"/><use xlink:href="#9" y="4.342"/><use xlink:href="#10" y="6.513"/><use xlink:href="#11" y="10.855"/><use xlink:href="#13" y="15.197"/><use xlink:href="#14" y="17.368"/><use xlink:href="#17" y="21.71"/><use xlink:href="#19" y="23.881"/><use xlink:href="#20" y="26.052"/><use xlink:href="#21" y="28.223"/><use xlink:href="#22" y="32.565"/><use xlink:href="#23" y="34.736"/><use xlink:href="#24" y="36.907"/><use xlink:href="#25" y="41.249"/><use xlink:href="#26" y="43.42"/></svg><svg x="11189"><use xlink:href="#a"/><use xlink:href="#b" x="-.004" y="45.566"/><use xlink:href="#8" y="2.171"/><use xlink:href="#9" y="4.342"/><use xlink:href="#10" y="6.513"/><use xlink:href="#11" y="10.855"/><use xlink:href="#13" y="15.197"/><use xlink:href="#14" y="17.368"/><use xlink:href="#17" y="21.71"/><use xlink:href="#19" y="23.881"/><use xlink:href="#20" y="26.052"/><use xlink:href="#21" y="28.223"/><use xlink:href="#22" y="32.565"/><use xlink:href="#23" y="34.736"/><use xlink:href="#24" y="36.907"/><use xlink:href="#25" y="41.249"/><use xlink:href="#26" y="43.42"/></svg><svg x="11356"><use xlink:href="#a"/><use xlink:href="#b" x="-.004" y="45.566"/><use xlink:href="#8" y="2.171"/><use xlink:href="#9" y="4.342"/><use xlink:href="#10" y="6.513"/><use xlink:href="#11" y="10.855"/><use xlink:href="#13" y="15.197"/><use xlink:href="#14" y="17.368"/><use xlink:href="#17" y="21.71"/><use xlink:href="#19" y="23.881"/><use xlink:href="#20" y="26.052"/><use xlink:href="#21" y="28.223"/><use xlink:href="#22" y="32.565"/><use xlink:href="#23" y="34.736"/><use xlink:href="#24" y="36.907"/><use xlink:href="#25" y="41.249"/><use xlink:href="#26" y="43.42"/></svg><svg x="11523"><use xlink:href="#a"/><use xlink:href="#b" x="-.004" y="45.566"/><use xlink:href="#8" y="2.171"/><use xlink:href="#9" y="4.342"/><use xlink:href="#10" y="6.513"/><use xlink:href="#11" y="10.855"/><use xlink:href="#13" y="15.197"/><use xlink:href="#14" y="17.368"/><use xlink:href="#17" y="21.71"/><use xlink:href="#19" y="23.881"/><use xlink:href="#20" y="26.052"/><use xlink:href="#21" y="28.223"/><use xlink:href="#22" y="32.565"/><use xlink:href="#23" y="34.736"/><use xlink:href="#24" y="36.907"/><use xlink:href="#25" y="41.249"/><use xlink:href="#26" y="43.42"/></svg><svg x="11690"><use xlink:href="#a"/><use xlink:href="#b" x="27.996" y="45.566"/><use xlink:href="#8" y="2.171"/><use xlink:href="#9" y="4.342"/><use xlink:href="#10" y="6.513"/><use xlink:href="#11" y="10.855"/><use xlink:href="#13" y="15.197"/><use xlink:href="#14" y="17.368"/><use xlink:href="#17" y="21.71"/><use xlink:href="#19" y="23.881"/><use xlink:href="#20" y="26.052"/><use xlink:href="#21" y="28.223"/><use xlink:href="#22" y="32.565"/><use xlink:href="#23" y="34.736"/><use xlink:href="#24" y="36.907"/><use xlink:href="#25" y="41.249"/><use xlink:href="#26" y="43.42"/><use xlink:href="#2" y="45.591"/></svg><svg x="11857"><use xlink:href="#a"/><use xlink:href="#b" x="27.996" y="45.566"/><use xlink:href="#8" y="2.171"/><use xlink:href="#9" y="4.342"/><use xlink:href="#10" y="6.513"/><use xlink:href="#11" y="10.855"/><use xlink:href="#13" y="15.197"/><use xlink:href="#14" y="17.368"/><use xlink:href="#17" y="21.71"/><use xlink:href="#19" y="23.881"/><use xlink:href="#20" y="26.052"/><use xlink:href="#21" y="28.223"/><use xlink:href="#22" y="32.565"/><use xlink:href="#23" y="34.736"/><use xlink:href="#24" y="36.907"/><use xlink:href="#25" y="41.249"/><use xlink:href="#26" y="43.42"/><use xlink:href="#2" y="45.591"/></svg><svg x="12024"><use xlink:href="#a"/><use xlink:href="#b" x="27.996" y="45.566"/><use xlink:href="#8" y="2.171"/><use xlink:href="#9" y="4.342"/><use xlink:href="#10" y="6.513"/><use xlink:href="#11" y="10.855"/><use xlink:href="#13" y="15.197"/><use xlink:href="#14" y="17.368"/><use xlink:href="#17" y="21.71"/><use xlink:href="#19" y="23.881"/><use xlink:href="#20" y="26.052"/><use xlink:href="#21" y="28.223"/><use xlink:href="#22" y="32.565"/><use xlink:href="#23" y="34.736"/><use xlink:href="#24" y="36.907"/><use xlink:href="#25" y="41.249"/><use xlink:href="#26" y="43.42"/><use xlink:href="#2" y="45.591"/></svg><svg x="12191"><use xlink:href="#a"/><use xlink:href="#b" x="-.004" y="45.566"/><use xlink:href="#8"/><use xlink:href="#9" y="2.171"/><use xlink:href="#10" y="4.342"/><use xlink:href="#11" y="8.684"/><use xlink:href="#13" y="13.026"/><use xlink:href="#14" y="15.197"/><use xlink:href="#17" y="19.539"/><use xlink:href="#19" y="21.71"/><use xlink:href="#20" y="23.881"/><use xlink:href="#21" y="26.052"/><use xlink:href="#22" y="30.394"/><use xlink:href="#23" y="32.565"/><use xlink:href="#24" y="34.736"/><use xlink:href="#25" y="39.078"/><use xlink:href="#26" y="41.249"/><use xlink:href="#2" y="43.42"/></svg></svg></g></g></svg></svg>